<?xml version="1.0" encoding="UTF-8"?>
<svg id="Layer_2" data-name="Layer 2" xmlns="http://www.w3.org/2000/svg" viewBox="0 0 100 100">
  <defs>
    <style>
      .cls-1 {
        fill: #fff;
      }

      .cls-2 {
        fill: #262262;
      }

      .cls-3 {
        fill: #005ca0;
      }

      .cls-4 {
        fill: #007bff;
      }
    </style>
  </defs>
  <g id="Layer_1-2" data-name="Layer 1">
    <g>
      <rect class="cls-2" width="100" height="100"/>
      <g>
        <polygon class="cls-1" points="15.84 39.99 49.88 73.78 84.31 40.28 67.95 32.58 54.45 34.59 43.86 34.1 39.2 33.32 33.44 32.05 15.84 39.99"/>
        <rect class="cls-3" x="15" y="35.46" width="21.01" height=".79" transform="translate(-12.04 12.91) rotate(-23.15)"/>
        <rect class="cls-3" x="22.14" y="42.76" width="15.06" height=".79" transform="translate(-20.74 28.97) rotate(-39.77)"/>
        <rect class="cls-3" x="75.81" y="27.98" width=".79" height="17.49" transform="translate(10.26 89.7) rotate(-64.51)"/>
        <rect class="cls-3" x="70.73" y="35.66" width=".79" height="14.63" transform="translate(-7.17 70.8) rotate(-50.7)"/>
        <path class="cls-1" d="M51.08,53.08c-1.87-6.02-5.26-9.39-9.42-11.16-2.07-3.66-2.99-8.41-2.99-8.41h-2.01l.23,7.37,2.78,1.54c.38,1.88.32,3.93.32,3.93,6.16,2.14,11.08,6.73,11.08,6.73Z"/>
        <path class="cls-3" d="M51.29,53.41l-.27-.25c-.05-.05-4.98-4.6-11.05-6.71l-.07-.02v-.07s.05-2.03-.31-3.87l-2.79-1.55v-.06l-.23-7.47h2.2v.08s.94,4.75,2.97,8.35c4.63,1.99,7.71,5.66,9.44,11.21l.11.36ZM40.1,46.28c5.26,1.85,9.66,5.51,10.78,6.48-1.73-5.31-4.76-8.83-9.25-10.76h-.03s-.01-.04-.01-.04c-1.91-3.37-2.85-7.72-2.98-8.36h-1.83l.23,7.21,2.77,1.54v.04c.34,1.67.34,3.5.33,3.88Z"/>
        <polygon class="cls-1" points="48.54 68.04 54.68 68.04 54.68 48.3 50.06 51.36 48.54 55.03 48.54 68.04"/>
        <path class="cls-3" d="M54.78,68.14h-6.33v-13.15s1.54-3.69,1.54-3.69h.03s4.77-3.18,4.77-3.18v20.02ZM48.64,67.94h5.93v-19.45l-4.43,2.95-1.5,3.61v12.89Z"/>
        <path class="cls-1" d="M61.26,33.51s-2.03,7.42-5.94,10.59c-3.91,3.16-7.32,7.87-7.22,13.7.1,5.84,0,10.83,0,10.83h6.58v-.59h-6.13v-12.06s-.5-4.72,10.79-8.82c0,0,1.34-.05,3.02-11.63l.59-2.97-1.68.94Z"/>
        <path class="cls-3" d="M54.78,68.73h-6.78v-.1c0-.05.1-5.06,0-10.83-.11-6.78,4.5-11.55,7.26-13.78,3.84-3.11,5.88-10.46,5.9-10.54v-.04s1.92-1.06,1.92-1.06l-.64,3.18c-1.58,10.9-2.86,11.66-3.09,11.7-11.05,4.02-10.72,8.67-10.71,8.72v11.96h6.14v.79ZM48.2,68.53h6.38v-.4h-6.13v-12.15c-.02-.18-.38-4.83,10.85-8.91h.03s1.32-.47,2.92-11.55l.55-2.76-1.46.82c-.17.6-2.22,7.57-5.96,10.6-2.73,2.21-7.3,6.93-7.19,13.63.09,5.32.02,10,0,10.74Z"/>
        <path class="cls-3" d="M47.71,68.75v-11.23c0-3.32,1.02-4.18,1.1-4.3h0s-.31,1.23-.31,4.3v11.23s-.79,0-.79,0Z"/>
        <rect class="cls-4" x="36.9" y="28.28" width="26.35" height="6.23"/>
        <path class="cls-3" d="M63.45,34.71h-26.75v-6.63h26.75v6.63ZM37.1,34.31h25.96v-5.84h-25.96v5.84Z"/>
        <path class="cls-4" d="M70.61,46.35v-12.99l-7.45-5.08-2.84,14.78s-.2-2.17,10.29,3.3Z"/>
        <path class="cls-3" d="M70.81,46.68l-.29-.15c-5.86-3.06-8.33-3.7-9.37-3.7-.38,0-.57.09-.62.18l-.28,1.47-.12-1.4s0-.09.02-.18l2.87-14.95,7.79,5.31v13.43ZM61.15,42.43c1.52,0,4.72,1.24,9.26,3.6v-12.56l-7.12-4.85-2.66,13.88c.14-.04.31-.06.52-.06Z"/>
        <path class="cls-4" d="M29.45,46.35v-12.99l7.45-5.08,2.84,14.78s.2-2.17-10.29,3.3Z"/>
        <path class="cls-3" d="M29.25,46.68v-13.43l7.79-5.31,2.87,14.95c.03.09.03.16.03.18l-.12,1.4-.28-1.47c-.05-.09-.23-.18-.62-.18-1.04,0-3.51.64-9.37,3.7l-.29.15ZM29.64,33.46v12.56c4.54-2.35,7.75-3.6,9.26-3.6.21,0,.38.02.52.06l-2.67-13.88-7.12,4.85Z"/>
        <path class="cls-3" d="M51.61,58.75c-.87,0-1.58-.71-1.58-1.58s.71-1.58,1.58-1.58,1.58.71,1.58,1.58-.71,1.58-1.58,1.58ZM51.61,56.38c-.44,0-.79.35-.79.79s.36.79.79.79.79-.36.79-.79-.35-.79-.79-.79Z"/>
      </g>
    </g>
  </g>
</svg>