<?xml version="1.0" encoding="UTF-8"?>
<svg id="Layer_2" data-name="Layer 2" xmlns="http://www.w3.org/2000/svg" viewBox="0 0 100 100">
  <defs>
    <style>
      .cls-1 {
        fill: #fff;
      }

      .cls-2 {
        fill: #262262;
      }

      .cls-3 {
        fill: #007bff;
      }
    </style>
  </defs>
  <g id="Layer_1-2" data-name="Layer 1">
    <g>
      <rect class="cls-2" width="100" height="100"/>
      <g>
        <path class="cls-3" d="M49.84,72.5c-9.02,0-18.04-.03-27.06.03-1.5,0-2.06-.34-2.04-1.96.08-7.88.07-15.77,0-23.65-.01-1.45.45-1.86,1.85-1.81,3.02.1,6.05.11,9.07,0,1.52-.06,2.12.43,1.89,1.93-.22,1.45.23,1.76,1.62,1.15,4.55-1.98,9.19-3.74,13.69-5.81,6.11-2.82,10.67-7.25,13.1-13.65.33-.88.77-1.5,1.76-1.14.99.36.92,1.17.62,2.03-1.46,4.18-3.96,7.67-7.34,10.48-1.24,1.04-.64,1.85-.19,2.77.38.78.94.19,1.37.02,4.4-1.76,8.8-3.53,13.2-5.31,2.17-.88,2.17-.89,3.02,1.21.51,1.25.94,2.53,1.55,3.73.72,1.43.26,2.05-1.16,2.62-10.16,4.04-20.3,8.16-30.44,12.26-3.2,1.29-6.36,2.67-9.61,3.84-1.38.5-1.31,1.42-1.16,2.42.17,1.11,1.13.58,1.71.58,13.93.03,27.87.05,41.8,0,1.59,0,2.29.38,2.13,2.07-.13,1.45-.11,2.92,0,4.37.1,1.42-.42,1.86-1.85,1.86-9.18-.05-18.36-.03-27.54-.03M31.91,58.77c0-3.51-.04-7.02.02-10.53.02-1.07-.2-1.54-1.4-1.49-2.27.1-4.54.09-6.8,0-1.12-.05-1.33.39-1.33,1.39.03,7.13.04,14.26,0,21.39,0,1.1.38,1.37,1.4,1.34,2.21-.06,4.43-.1,6.64,0,1.27.06,1.52-.42,1.5-1.57-.07-3.51-.02-7.02-.02-10.53M55.53,70.86h18.8c3.25,0,3.15,0,3.28-3.17.06-1.55-.47-1.83-1.89-1.83-12.97.05-25.94.03-38.9.03-3.3,0-3.23,0-3.31,3.31-.04,1.41.48,1.69,1.76,1.68,6.75-.06,13.51-.03,20.26-.03M33.55,56.82c0,3.13,0,3.12,2.74,2.01,11.64-4.7,23.29-9.4,34.93-14.09,3.3-1.33,3.25-1.31,2.01-4.56-.43-1.14-.85-1.26-1.97-.81-11.77,4.81-23.56,9.59-35.37,14.29-1.7.68-2.94,1.34-2.34,3.16M52.65,44.76c-.22-.93-.49-1.22-1.36-.78-3.93,2-8.06,3.57-12.13,5.26-1.64.68-3.28,1.34-4.93,1.99-.54.21-.84.59-.63,1.11.26.63.75.18,1.09.05,5.68-2.29,11.36-4.59,17.04-6.89.42-.17,1-.21.93-.74"/>
        <path class="cls-3" d="M71.78,54.75c.06,1.62-1.08,2.18-2.32,2.71-1.85.78-1.89,1.01-.63,2.6.17.21.36.39.53.6.44.56,1.36,1.13.53,1.86-.71.63-1.26-.17-1.7-.69-.49-.57-1-1.14-1.38-1.78-1.02-1.74-.64-2.9,1.17-3.79,2.48-1.22,2.68-1.9,1.24-4.37-.27-.46-.6-.89-.91-1.33-.31-.44-.44-.9.01-1.3.47-.42.87-.14,1.26.22,1.11,1.04,2.22,3.66,2.2,5.25"/>
        <path class="cls-3" d="M64.67,57.16c.06.7-.74,1.28-1.77,1.63-1.14.38-1.07.93-.41,1.74.46.56,1.59,1.2.67,1.96-.95.78-1.5-.4-2.01-1-1.61-1.93-1.37-3.08.88-4.08,1-.45,1.14-1.01.69-1.88-.3-.57-.6-1.13-.96-1.67-.33-.5-.53-.97.05-1.4.52-.38.92-.06,1.24.33.9,1.11,1.49,2.35,1.61,4.38"/>
        <path class="cls-3" d="M56.09,60.14c.07.46.42.73.7,1.04.36.41.55.84.1,1.27-.52.49-.97.21-1.41-.18-1.68-1.51-1.63-2.71.25-3.92,1.05-.68.35-1.29.06-1.91-.28-.6-1.08-1.24-.17-1.78.94-.56,1.31.42,1.68,1.02,1.26,2.04.95,3.13-1.2,4.46"/>
        <path class="cls-1" d="M31.91,58.77c0,3.51-.04,7.02.02,10.53.02,1.16-.22,1.63-1.5,1.57-2.21-.1-4.43-.07-6.64,0-1.02.03-1.41-.23-1.4-1.34.05-7.13.04-14.26,0-21.39,0-1,.2-1.43,1.33-1.39,2.27.09,4.54.1,6.8,0,1.2-.05,1.41.42,1.4,1.49-.06,3.51-.02,7.02-.02,10.53"/>
        <path class="cls-1" d="M55.54,70.86c-6.75,0-13.51-.03-20.26.03-1.29,0-1.8-.26-1.76-1.68.08-3.31,0-3.32,3.31-3.32,12.97,0,25.94.02,38.9-.03,1.42,0,1.96.28,1.89,1.83-.13,3.17-.03,3.17-3.28,3.17h-18.8"/>
        <path class="cls-1" d="M33.55,56.82c-.6-1.82.64-2.48,2.34-3.16,11.82-4.7,23.6-9.48,35.37-14.3,1.11-.46,1.54-.33,1.97.81,1.23,3.25,1.29,3.23-2.01,4.56-11.64,4.7-23.29,9.39-34.93,14.1-2.74,1.11-2.74,1.12-2.74-2.01"/>
        <path class="cls-1" d="M52.65,44.76c.08.53-.51.57-.93.74-5.67,2.31-11.35,4.61-17.04,6.89-.34.14-.83.58-1.09-.05-.21-.52.08-.9.63-1.11,1.65-.65,3.3-1.31,4.93-1.99,4.07-1.69,8.19-3.26,12.13-5.26.87-.44,1.14-.15,1.36.78"/>
      </g>
    </g>
  </g>
</svg>