<?xml version="1.0" encoding="UTF-8"?>
<svg id="Layer_2" data-name="Layer 2" xmlns="http://www.w3.org/2000/svg" viewBox="0 0 100 100">
  <defs>
    <style>
      .cls-1 {
        fill: #ec1e27;
      }

      .cls-2 {
        fill: #fff;
      }

      .cls-3 {
        fill: #262262;
      }

      .cls-4 {
        fill: #007bff;
      }
    </style>
  </defs>
  <g id="Layer_1-2" data-name="Layer 1">
    <g>
      <rect class="cls-3" width="100" height="100"/>
      <g>
        <path class="cls-2" d="M56.84,26.78s-.04,0-.05,0c-.99,2.85-3.52,4.78-6.36,4.78s-5.41-1.96-6.38-4.85c-.16.02-.31.04-.44.07,0,0,0-.02.01-.02-.32.06-.6.12-.78.16,1.09,3.48,4.14,5.86,7.59,5.86s6.52-2.4,7.6-5.89c-.34-.06-.79-.13-1.21-.2,0,.01,0,.02-.01.04,0,.02.02.04.03.07"/>
        <path class="cls-2" d="M37.24,45.58c.08-.7.77-7.58-2.47-13.87l-9.99,29.51,5.79,2.04,6.67-17.67Z"/>
        <polygon class="cls-2" points="24.23 62.83 29.89 65.04 30.18 64.27 24.43 62.24 24.23 62.83"/>
        <path class="cls-2" d="M59.51,27.3c-.13-.07-.28-.13-.43-.19-1.2,3.98-4.69,6.73-8.65,6.73s-7.39-2.69-8.62-6.61c-3,1.05-5.83,2.39-6.35,3.29.13.27.35.76.61,1.39,3.16,6.68,2.27,13.55,2.23,13.87,0,.02-.01.04-.02.06v24.59c.97.17,4,.52,12.27.52s11.3-.35,12.27-.52v-24.32l-.08-.22s-.02-.08-.03-.12c-.05-.34-1.04-8.08,2.88-15.12.02-.05.05-.1.07-.14-.51-.88-3.22-2.18-6.14-3.22"/>
        <polygon class="cls-2" points="71.12 65.04 76.78 62.83 76.57 62.2 70.85 64.32 71.12 65.04"/>
        <path class="cls-2" d="M66.25,31.71c-3.25,6.29-2.55,13.17-2.47,13.87l6.69,17.72,5.76-2.13-9.98-29.47Z"/>
        <path class="cls-2" d="M45.14,26.56c.88,2.33,2.95,3.91,5.28,3.91s4.38-1.55,5.26-3.86c-.31-.04-.61-.08-.91-.11l.03-.09c-.29-.02-.59-.05-.89-.06-3.55-.21-6.41-.06-8.28.11v.04c-.16.02-.33.04-.5.06"/>
        <path class="cls-4" d="M50.43,33.85c3.96,0,7.45-2.74,8.65-6.73-.18-.07-.38-.12-.6-.17-.09-.02-.25-.05-.45-.08-1.08,3.49-4.14,5.9-7.6,5.9s-6.5-2.39-7.59-5.86c-.12.03-.21.04-.21.04-.27.09-.55.18-.82.28,1.23,3.92,4.69,6.61,8.62,6.61"/>
        <path class="cls-4" d="M50.43,30.47c-2.33,0-4.41-1.57-5.28-3.91-.4.05-.77.1-1.1.14.97,2.88,3.52,4.85,6.38,4.85s5.36-1.93,6.36-4.78c-.37-.06-.73-.11-1.09-.16-.89,2.31-2.95,3.86-5.26,3.86"/>
        <path class="cls-4" d="M62.82,70.44c-.97.17-4,.52-12.27.52s-11.3-.35-12.27-.52v-24.59s0,.04-.01.05l-1.17,3.1v21.91c0,.25.16.47.39.56.19.07,2.21.67,13.06.67h0c10.85,0,12.86-.6,13.06-.67.24-.08.39-.31.39-.56v-21.66l-1.18-3.13v24.32Z"/>
        <path class="cls-4" d="M35.11,30.11c.36.6.67,1.2.96,1.81-.26-.64-.48-1.12-.61-1.39.52-.9,3.35-2.24,6.35-3.29-.06-.2-.12-.39-.17-.59l.92-.23s-.03-.05-.03-.08c-.06-.32.14-.62.46-.68.08-.01.74-.14,1.91-.27,0,0,0,0,0,0-.79.08-1.43.15-1.87.22-.7.22-2.24.72-3.85,1.38-3.16,1.29-4.28,2.24-4.71,2.91.04-.01.07-.02.11-.03.21-.02.41.08.52.26"/>
        <path class="cls-4" d="M56.83,26.01s0,.02,0,.03l.17.04c-.05.2-.11.4-.17.59.42.07.87.14,1.21.19.05-.16.1-.33.14-.49l1.05.26c-.04.16-.09.32-.14.48.15.05.3.12.43.18,2.92,1.04,5.63,2.34,6.14,3.22-.02.04-.04.09-.07.14.1-.18.21-.37.32-.56.11-.18.31-.29.52-.26.1,0,.18.05.26.1-.39-.68-1.49-1.65-4.76-2.98-1.55-.63-3.04-1.13-3.78-1.36-.58-.08-1.16-.15-1.73-.21.26.08.44.33.41.61"/>
        <path class="cls-4" d="M36.07,31.92c.87,2.1,2.22,5.85,2.22,9v4.93s.01-.04.02-.07c.04-.32.93-7.19-2.23-13.87"/>
        <path class="cls-4" d="M34.35,30.1c.03-.07.07-.14.12-.22-.16.05-.29.17-.34.33l-11.09,32.76c-.09.27.04.57.31.68l6.65,2.59c.06.02.13.04.2.04.07,0,.15-.01.22-.05.13-.06.23-.17.28-.3l.6-1.58c-.1.09-.23.15-.36.15-.06,0-.12,0-.18-.03l-.58-.2-.29.77-5.66-2.21.2-.59-.49-.17c-.28-.1-.43-.41-.33-.69.1-.28.41-.43.69-.33l.48.17,9.99-29.51c3.25,6.29,2.56,13.17,2.47,13.87l-6.67,17.67.56.2c.2.07.33.25.35.45l5.63-14.9v-.51c1.76-10.36-1.11-16.08-2.75-18.39"/>
        <path class="cls-4" d="M38.28,45.85v-4.93c0-3.15-1.34-6.9-2.22-9.01-.29-.61-.6-1.21-.96-1.81-.11-.18-.31-.28-.52-.26-.04,0-.08.02-.12.03-.05.08-.09.15-.12.22,1.64,2.31,4.52,8.03,2.75,18.39v.51l1.17-3.1s0-.04.01-.05"/>
        <path class="cls-4" d="M77.51,61.6c-.04.17-.16.31-.34.38l-.6.22.21.63-5.66,2.21-.27-.72-.42.15c-.06.02-.12.03-.19.03-.22,0-.43-.13-.51-.35-.1-.28.04-.59.32-.69l.41-.15-6.69-17.72c-.08-.7-.77-7.58,2.47-13.87l9.98,29.47.57-.21c.18-.07.38-.03.53.09l-10.44-30.85c-.04-.11-.11-.2-.2-.26.02.04.05.09.07.13-1.65,2.3-4.55,8.07-2.74,18.53v.65l6.3,16.67c.05.14.15.24.29.3.07.03.15.05.22.05.07,0,.13-.01.2-.04l6.65-2.59c.27-.1.41-.4.32-.68l-.46-1.37Z"/>
        <path class="cls-4" d="M62.71,45.79s.02.08.03.12l.08.22v-5.2c0-3.96,2.12-8.86,2.76-10.26-3.92,7.05-2.92,14.79-2.88,15.12"/>
        <path class="cls-4" d="M66.75,30.08s-.04-.08-.07-.13c-.07-.05-.16-.09-.26-.1-.21-.03-.41.08-.52.26-.11.18-.21.37-.32.56-.64,1.39-2.76,6.3-2.76,10.26v5.2l1.18,3.13v-.65c-1.81-10.46,1.1-16.23,2.74-18.53"/>
        <path class="cls-1" d="M31.45,64.14c.03-.08.03-.16.03-.24l-.17.45c.06-.06.12-.13.15-.21"/>
        <polygon class="cls-4" points="24.6 61.73 24.43 62.24 30.18 64.27 30.37 63.76 24.6 61.73"/>
        <polygon class="cls-4" points="30.37 63.76 30.56 63.26 24.77 61.22 24.6 61.73 30.37 63.76"/>
        <path class="cls-4" d="M24.12,61.56l.48.17.17-.51-.48-.17c-.28-.1-.59.05-.69.33-.1.28.05.59.33.69l.49.17.17-.51-.48-.17Z"/>
        <path class="cls-4" d="M31.12,63.45l-.56-.2-.19.51.57.2-.57-.2-.19.51.58.2c.06.02.12.03.18.03.14,0,.26-.06.36-.15l.17-.45c-.02-.2-.15-.38-.35-.45"/>
        <path class="cls-4" d="M77.49,61.29c-.04-.09-.09-.17-.17-.23l.18.54c.02-.1.02-.21-.02-.32"/>
        <polygon class="cls-4" points="76.4 61.69 76.23 61.18 70.46 63.31 70.65 63.81 76.4 61.69"/>
        <polygon class="cls-4" points="70.65 63.81 70.85 64.32 76.57 62.2 76.4 61.69 70.65 63.81"/>
        <path class="cls-4" d="M70.24,63.96l.41-.15-.19-.51-.41.15c-.28.1-.42.41-.32.69.08.22.29.35.51.35.06,0,.12-.01.19-.03l.42-.15-.19-.5-.41.15Z"/>
        <path class="cls-4" d="M76.8,60.97l-.57.21.17.51.59-.22-.59.22.17.51.6-.22c.18-.07.3-.21.34-.38l-.18-.54c-.14-.12-.34-.16-.53-.09"/>
        <path class="cls-4" d="M45.24,25.36c.67-.06,1.42-.11,2.24-.15,1.6-.07,3.48-.1,5.52,0,.71.03,1.45.08,2.2.15.23.02.45.04.68.07.13.12.24.24.35.36.12-.13.16-.26,0-.42.07,0,.14.01.2.02-.04-.01-.07-.02-.11-.02-5.19-.5-9.2-.25-11.42,0,0,0-.01.02-.02.02.12-.01.24-.02.37-.03"/>
        <path class="cls-4" d="M53.92,26.36c-3.13-.2-6.38-.1-8.27.1l-.42-1.09.4,1.1c1.87-.18,4.74-.32,8.28-.11"/>
        <path class="cls-1" d="M56.81,26.71s0-.02.01-.04c-.01,0-.02,0-.03,0,0,.01.01.03.02.04"/>
        <path class="cls-4" d="M56.84,26.78s-.02-.04-.03-.07c0,.02-.02.04-.02.06.02,0,.04,0,.05,0"/>
        <path class="cls-4" d="M54.81,26.42l-.03.09c.3.03.6.07.91.11.01-.04.03-.07.04-.11-.3-.03-.61-.06-.92-.09"/>
        <path class="cls-4" d="M55.74,26.48c-.04-.13.02-.24.11-.34.03-.11.07-.21.09-.32l.2.05s.06-.05.08-.08c-.11-.12-.22-.24-.35-.36-.23-.02-.46-.04-.68-.07l.54,1.12s0,0,0,0"/>
        <path class="cls-4" d="M55.73,26.51s-.03.07-.04.11c.36.05.73.1,1.09.16,0-.02.01-.04.02-.06,0-.01-.01-.03-.02-.04-.46-.07-.87-.14-1.04-.16,0,0-.01,0-.02,0"/>
        <path class="cls-1" d="M55.75,26.51s0-.01,0-.02h0v.02Z"/>
        <path class="cls-1" d="M55.74,26.49s0,0,0-.01c0,0,0,0,0,0h0s0,0,0,0"/>
        <path class="cls-4" d="M56.14,25.87l-.2-.05c-.03.11-.06.21-.09.32.08-.09.2-.18.29-.27"/>
        <path class="cls-4" d="M47.48,25.22h5.52c-2.04-.1-3.91-.07-5.52,0"/>
        <path class="cls-4" d="M45.66,26.51v-.04c-.2.02-.36.04-.53.05,0,.01,0,.03.01.04.17-.02.33-.04.51-.06"/>
        <path class="cls-4" d="M44.05,26.71s0-.02-.01-.04c-.14.03-.28.05-.42.08,0,0,0,.02-.01.02.14-.02.29-.04.44-.07"/>
        <path class="cls-4" d="M44.91,25.82c.06.24.14.47.22.7.16-.02.33-.04.51-.05l-.4-1.1c-.13.01-.24.02-.37.03-.18.18-.27.35-.31.51l.35-.09Z"/>
        <path class="cls-4" d="M45.14,26.56s-.01-.03-.02-.04c-.27.03-.52.06-.74.09,0,0,0,0,0,0-.12.02-.24.04-.35.06,0,.01,0,.02.01.04.33-.05.7-.1,1.1-.14"/>
        <path class="cls-4" d="M44.91,25.82l-.35.09c-.06.22-.07.44-.17.7.22-.03.47-.06.74-.09-.08-.23-.16-.46-.22-.7"/>
        <path class="cls-1" d="M54.81,26.41c-.3-.02-.6-.04-.89-.06.3.02.59.04.89.07h0Z"/>
        <path class="cls-4" d="M53.92,26.36c.29.02.59.04.89.06l.38-1.05c-.75-.07-1.49-.12-2.2-.15h-5.52c-.82.04-1.58.09-2.24.15l.42,1.09c1.89-.2,5.13-.3,8.27-.1"/>
        <path class="cls-4" d="M55.73,26.51s0-.01,0-.02c-.31-.03-.62-.05-.92-.07h0c.31.03.62.06.92.09"/>
        <path class="cls-4" d="M55.74,26.49s0,0,0,0l-.54-1.12-.38,1.05c.3.02.61.05.92.07"/>
        <path class="cls-1" d="M55.75,26.51v-.02h-.01s0,.01,0,.02c0,0,.01,0,.02,0"/>
        <polygon class="cls-1" points="55.74 26.49 55.74 26.49 55.74 26.49 55.74 26.49"/>
        <path class="cls-4" d="M43.61,26.75s.01-.02.02-.03c-.27.04-.41.07-.42.07-.04,0-.07.01-.11.01-.12,0-.23-.04-.32-.11.02.07.04.15.06.22.18-.04.46-.1.78-.16"/>
        <path class="cls-4" d="M42.53,26.33s.02.05.03.08l.12-.03c.03.11.06.21.09.31.09.06.2.1.32.1.04,0,.07,0,.11-.01,0,0,.15-.03.42-.07.07-.17.16-.34.27-.5-.01-.04-.03-.08-.04-.13l.15-.04c.15-.21.34-.42.56-.62.1,0,.21-.02.31-.03,0,0,.01-.02.02-.02-1.17.13-1.83.26-1.91.27-.31.06-.52.37-.46.68"/>
        <path class="cls-4" d="M56.23,25.79s.07.08.1.12l.5.13s0-.02,0-.03c.03-.28-.15-.53-.41-.61-.07,0-.13-.01-.2-.02.17.16.12.29,0,.42"/>
        <path class="cls-4" d="M59.08,27.12c.05-.16.1-.32.14-.48l-1.05-.26c-.04.17-.09.33-.14.5.2.03.36.06.45.08.22.04.41.1.6.17"/>
        <path class="cls-4" d="M42.84,26.91c-.02-.07-.04-.14-.06-.22-.1-.07-.17-.16-.22-.28l-.92.23c.05.2.11.4.17.6.27-.1.55-.19.82-.28,0,0,.08-.02.21-.04"/>
        <path class="cls-4" d="M42.77,26.69c-.03-.1-.06-.21-.09-.31l-.13.03c.04.12.12.21.22.28"/>
        <path class="cls-4" d="M56.64,26.38c.05.1.1.19.14.29,0,0,.02,0,.03,0,.07-.19.12-.39.17-.59l-.17-.04c-.02.14-.09.25-.18.34"/>
        <path class="cls-4" d="M56.82,26.04l-.5-.12c.12.15.23.31.32.46.1-.09.16-.2.18-.34"/>
        <path class="cls-4" d="M43.86,26.08s.03.08.04.13c.04-.06.07-.11.11-.16l-.15.04Z"/>
        <path class="cls-4" d="M55.74,26.48c.04-.11.08-.22.11-.34-.09.1-.15.21-.11.34"/>
        <path class="cls-4" d="M56.14,25.87l.18.04s-.06-.08-.1-.13c-.02.03-.05.05-.08.08"/>
        <path class="cls-4" d="M56.79,26.67c-.04-.1-.09-.2-.14-.29-.12.11-.27.17-.44.15-.15-.01-.3-.03-.46-.04,0,0,0,.01,0,.02.17.03.58.09,1.04.16"/>
        <path class="cls-4" d="M55.85,26.14c-.03.11-.07.23-.11.34,0,0,0,0,0,.01.15.01.3.03.46.04.17.01.33-.05.44-.15-.09-.16-.2-.31-.32-.46l-.18-.04c-.1.09-.21.17-.29.27"/>
        <path class="cls-4" d="M44.03,26.67s0-.01,0-.01c-.15.02-.29.04-.4.06,0,.01-.01.02-.02.03.13-.03.27-.05.42-.08"/>
        <path class="cls-4" d="M43.9,26.21c-.11.16-.2.33-.27.5.11-.02.24-.04.4-.06-.05-.15-.09-.29-.13-.44"/>
        <path class="cls-4" d="M44.87,25.4c-.1,0-.21.02-.31.03-.22.2-.4.41-.55.62l.55-.14c.05-.17.13-.33.31-.51"/>
        <path class="cls-4" d="M44.39,26.61c-.13.02-.25.03-.36.05,0,0,0,.01,0,.01.12-.02.24-.04.35-.06,0,0,0,0,0,0"/>
        <path class="cls-4" d="M44.39,26.61c.1-.26.11-.48.17-.7l-.55.14c-.04.05-.07.11-.11.16.04.15.08.3.13.44.11-.01.23-.03.36-.05"/>
      </g>
    </g>
  </g>
</svg>