<?xml version="1.0" encoding="UTF-8"?>
<svg id="Layer_2" data-name="Layer 2" xmlns="http://www.w3.org/2000/svg" viewBox="0 0 100 100">
  <defs>
    <style>
      .cls-1 {
        fill: #fff;
      }

      .cls-2 {
        fill: #262262;
      }

      .cls-3 {
        fill: #005ca0;
      }

      .cls-4 {
        fill: #007bff;
      }
    </style>
  </defs>
  <g id="Layer_1-2" data-name="Layer 1">
    <g>
      <rect class="cls-2" width="100" height="100"/>
      <g>
        <polygon class="cls-1" points="17.98 40.03 49.89 71.7 82.16 40.31 67.81 33.33 55 29.1 45.59 29.93 38.87 28.9 34.47 32.6 17.98 40.03"/>
        <rect class="cls-3" x="17.19" y="35.8" width="19.69" height=".72" transform="translate(-12.04 13.54) rotate(-23.15)"/>
        <polygon class="cls-3" points="25.76 47.78 25.28 47.24 35.46 38.31 35.94 38.86 25.76 47.78"/>
        <polygon class="cls-3" points="81.8 40.83 66.14 33.16 66.45 32.51 82.12 40.18 81.8 40.83"/>
        <rect class="cls-3" x="69.9" y="36.4" width=".72" height="12.95" transform="translate(-8.42 67.04) rotate(-48.47)"/>
        <rect class="cls-1" x="47.25" y="43.94" width="7.44" height="18.65"/>
        <path class="cls-3" d="M54.96,62.79h-7.98v-19.04h7.98v19.04ZM47.52,62.4h6.89v-18.26h-6.89v18.26Z"/>
        <path class="cls-3" d="M51.31,49.57c-.97,0-1.76-.79-1.76-1.76s.79-1.76,1.76-1.76,1.76.79,1.76,1.76-.79,1.76-1.76,1.76ZM51.31,46.78c-.57,0-1.04.47-1.04,1.04s.47,1.04,1.04,1.04,1.04-.46,1.04-1.04-.46-1.04-1.04-1.04Z"/>
        <rect class="cls-4" x="47.25" y="58.08" width="7.44" height="4.43"/>
        <path class="cls-4" d="M47.25,58.24s2.56-6.28,7.55-10.42l-.11,10.42h-7.44Z"/>
        <path class="cls-4" d="M35.21,27.62s-.3-1.83,16.2-1.83,17.22,2.84,16.27,4.82l-1.25,1.8h-31.21v-4.79Z"/>
        <path class="cls-3" d="M66.51,32.59h-31.49v-4.97s0-.13.12-.28c.44-.52,2.91-1.73,16.26-1.73,9.79,0,15.17.97,16.43,2.97.39.61.39,1.3,0,2.11l-1.32,1.91ZM35.39,32.23h30.94l1.2-1.73c.31-.66.32-1.24,0-1.74-1.17-1.86-6.6-2.8-16.12-2.8-15.4,0-16,1.59-16.02,1.66v4.6Z"/>
        <path class="cls-4" d="M42.44,35.19c-3.57.5-7.85-2.62-7.18-7.83,0,0-3.61,2.88-2.93,7.53.68,4.64,3.74,7.56,15.53,8.44,0,0-3.19-8.46-5.42-8.14Z"/>
        <path class="cls-3" d="M48.05,43.46h-.18c-10.66,0-15.02-3.52-15.71-8.28-.68-4.69,2.96-7.66,3-7.69l.43-.35-.15.54c-.38,1.38-.11,2.85.64,3.74,2.31,2.76,5.33,2.97,6.86,3.57,1.76.69,3.47,4.99,3.47,4.99M34.96,28.16c-.91.92-2.96,3.44-2.45,6.97.65,4.49,4.92,7.92,15.17,7.97,0,0-3.67-6.64-5.69-7.58-1.58-.73-2.65,1-6.21-3.89-.76-1.05-1.04-2.21-.82-3.48Z"/>
        <path class="cls-4" d="M64.74,32.41s-16.75,21.53-17.25,25.09c0,0,7.25-15.58,18.48-12.94,0,0-1.4-11.16,1.59-14.25l.27-1.16-.61-.62-2.49,3.87Z"/>
        <path class="cls-3" d="M47.14,58.67l.17-1.19c.5-3.57,16.6-24.3,17.29-25.18l2.6-4.05.84.85-.31,1.3-.04.04c-2.9,2.99-1.56,13.99-1.54,14.1l.03.26-.25-.06c-.84-.2-1.68-.3-2.52-.3-9.53,0-15.7,13.01-15.76,13.14l-.51,1.09ZM67.26,28.82l-2.37,3.69c-.13.17-9.68,12.46-14.51,19.92,2.77-3.79,7.3-8.34,13.03-8.34.78,0,1.57.09,2.35.25-.19-1.72-1.12-11.17,1.64-14.11l.24-1.01-.38-.39Z"/>
      </g>
    </g>
  </g>
</svg>