<?xml version="1.0" encoding="UTF-8"?>
<svg id="Layer_2" data-name="Layer 2" xmlns="http://www.w3.org/2000/svg" viewBox="0 0 100 100">
  <defs>
    <style>
      .cls-1 {
        fill: #fff;
      }

      .cls-2 {
        fill-rule: evenodd;
      }

      .cls-2, .cls-3 {
        fill: #005ca0;
      }

      .cls-4 {
        fill: #262262;
      }

      .cls-5 {
        fill: #007bff;
      }
    </style>
  </defs>
  <g id="Layer_1-2" data-name="Layer 1">
    <g>
      <rect class="cls-4" width="100" height="100"/>
      <g>
        <polygon class="cls-1" points="19.82 40.5 49.89 70.36 80.32 40.76 66.79 34.18 54.41 33.98 46.88 33.98 39.68 32.88 35.37 33.49 19.82 40.5"/>
        <rect class="cls-3" x="19.07" y="36.5" width="18.57" height=".7" transform="translate(-12.17 14.05) rotate(-23.06)"/>
        <polygon class="cls-3" points="27.15 47.81 26.69 47.29 41.19 34.62 41.65 35.15 27.15 47.81"/>
        <polygon class="cls-3" points="79.97 41.26 65.42 34.13 65.73 33.45 80.28 40.58 79.97 41.26"/>
        <polygon class="cls-3" points="73.44 47.49 59.8 35.42 60.26 34.89 73.9 46.96 73.44 47.49"/>
        <path class="cls-1" d="M37.19,25.6s16.65-2.06,27.71,0l.97,7.94s-.57,2.86-20.69,2.86c0,0-7.51-1.35-8.97-2.86l.97-7.94Z"/>
        <path class="cls-3" d="M45.19,36.56h-.03c-.31-.06-7.58-1.38-9.06-2.91l-.05-.06,1-8.14.13-.02c.07,0,7.51-.92,15.63-.92,4.78,0,8.86.31,12.13.92l.12.02.99,8.08v.03c-.02.08-.24.84-2.92,1.56-3.49.94-9.69,1.44-17.93,1.44ZM36.4,33.48c1.49,1.41,8.45,2.69,8.81,2.76,18.56,0,20.37-2.47,20.5-2.72l-.95-7.78c-3.23-.59-7.25-.89-11.95-.89-7.53,0-14.45.78-15.47.9l-.94,7.73Z"/>
        <path class="cls-5" d="M36.23,33.54l.97-7.94s10.69,2.79,12.87,7.27c.38.79.2,3.51.2,3.51,0,0-10.29.36-14.05-2.85Z"/>
        <path class="cls-3" d="M49.33,36.64c-2.96,0-10.18-.28-13.26-2.92l-.1-.09,1.02-8.35.27.07s2.72.72,5.65,1.97c3.96,1.69,6.45,3.52,7.38,5.44.4.82.25,3.35.23,3.63l-.02.22h-.22s-.36.02-.96.02ZM36.49,33.44c3.1,2.52,10.6,2.72,12.84,2.72.31,0,.55,0,.71,0,.05-.86.07-2.62-.19-3.16-1.92-3.94-10.77-6.6-12.44-7.07l-.92,7.52Z"/>
        <path class="cls-5" d="M65.88,33.54l-.97-7.94s-9.65,3.04-12.29,7.27c-.48.77-.79,3.51-.79,3.51,0,0,10.29.36,14.05-2.85Z"/>
        <path class="cls-3" d="M52.78,36.64h0c-.59,0-.94-.01-.95-.01h-.26s.03-.27.03-.27c.01-.11.32-2.8.82-3.61,1.12-1.8,3.55-3.59,7.24-5.32,2.73-1.28,5.16-2.05,5.19-2.06l.28-.09,1.02,8.36-.1.09c-3.08,2.63-10.3,2.92-13.26,2.92ZM52.11,36.15c.16,0,.39,0,.67,0,2.24,0,9.74-.2,12.84-2.72l-.92-7.51c-1.6.54-9.57,3.37-11.88,7.08-.33.53-.61,2.26-.72,3.14Z"/>
        <path class="cls-1" d="M47.69,36.58h6.82s-3.49,9.26-3.75,12.09c0,0-2.05-11.93-3.14-11.93"/>
        <path class="cls-2" d="M48.09,36.41c.11.18.22.37.33.56-.26.15-.52.3-.78.46-.1-.15-.19-.31-.3-.47.25-.19.48-.37.72-.55h.03Z"/>
        <path class="cls-2" d="M54.05,36.41c.24.18.47.36.72.55-.1.16-.2.31-.3.47-.26-.15-.51-.3-.78-.46.11-.19.22-.38.33-.56h.03Z"/>
        <path class="cls-2" d="M49.98,47.21h2.15c0,.16,0,.32,0,.48,0,.05.01.12.04.16.42.59.5,1.24.35,1.92-.07.31-.2.59-.45.86v-.71c0-.11,0-.22,0-.32,0-.22-.14-.37-.36-.38-.12,0-.15-.05-.14-.16,0-.1,0-.2,0-.3-.03-.31-.27-.52-.58-.51-.28,0-.52.25-.53.54,0,.13,0,.27,0,.41-.06,0-.11.01-.17.02-.22.03-.34.18-.34.43,0,.27,0,.53,0,.8,0,.05,0,.09,0,.17-.18-.19-.29-.4-.37-.62-.22-.66-.19-1.31.15-1.93.02-.04.05-.09.08-.12.15-.16.2-.34.18-.55,0-.06,0-.12,0-.18Z"/>
        <path class="cls-2" d="M50.46,49.38c0,.26,0,.53,0,.79,0,.21.11.38.29.48.34.19.78-.03.82-.42.02-.23,0-.47.01-.7v-.14c.22-.05.35.04.35.25,0,1.13,0,2.25,0,3.38,0,.19-.1.28-.29.28-.42,0-.84,0-1.27,0-.19,0-.27-.08-.27-.27,0-1.13,0-2.26,0-3.38,0-.22.11-.3.35-.26ZM51.51,52.27c0-.06,0-.13,0-.19-.02-.19-.11-.32-.3-.34-.4-.06-.74-.01-.7.54v.04c-.01.19.03.37.22.44.2.08.42.09.62-.03.18-.11.17-.29.16-.47Z"/>
        <path class="cls-2" d="M50.61,49.49c0-.23,0-.46,0-.69.01-.27.23-.44.5-.39.16.03.31.19.31.37,0,.47.01.93,0,1.4,0,.22-.19.39-.41.38-.21,0-.39-.17-.4-.39,0-.23,0-.46,0-.69h0Z"/>
        <path class="cls-2" d="M49.71,39.84c.07.2.13.39.19.59-.29.09-.57.18-.87.27-.06-.19-.12-.37-.19-.56.29-.1.57-.2.86-.3Z"/>
        <path class="cls-2" d="M52.2,40.43c.07-.2.13-.39.19-.59.29.1.57.19.86.29-.06.19-.12.37-.18.56-.29-.09-.57-.18-.87-.27Z"/>
        <path class="cls-2" d="M50.37,42.25c.04.21.08.4.12.6-.14.03-.27.06-.4.08-.13.02-.27.04-.4.07-.08.02-.12,0-.13-.08-.02-.13-.04-.26-.07-.38-.01-.06,0-.1.06-.12.26-.05.52-.11.81-.17Z"/>
        <path class="cls-2" d="M49.94,46c.31-.02.6-.03.91-.05,0,.2.02.38.02.56,0,.02-.05.06-.07.06-.27,0-.54,0-.84,0,0-.18-.02-.37-.03-.57Z"/>
        <path class="cls-2" d="M53.09,38.08c.1-.19.18-.37.28-.56.21.11.41.21.61.32.2.11.2.11.1.31-.05.1-.1.21-.16.32-.28-.13-.55-.26-.83-.39Z"/>
        <path class="cls-2" d="M48.73,37.52c.1.19.18.37.28.56-.27.13-.54.25-.82.39-.08-.16-.16-.32-.24-.48,0-.02.02-.07.04-.08.24-.13.48-.25.75-.38Z"/>
        <path class="cls-2" d="M51.61,42.85c.04-.21.08-.4.12-.6.18.04.36.07.53.1.05.01.1.03.16.04q.2.05.16.26c-.02.09-.03.19-.05.28,0,.03-.06.08-.08.08-.27-.04-.55-.1-.84-.15Z"/>
        <path class="cls-2" d="M50.68,44.08c-.28.04-.55.08-.82.1-.03,0-.08-.04-.09-.07-.03-.16-.05-.33-.08-.51.29-.04.56-.09.84-.13.02,0,.07.03.07.05.03.18.05.35.07.55Z"/>
        <path class="cls-2" d="M52.02,41.03c.31.08.58.16.88.24-.04.17-.08.34-.13.5,0,.03-.07.06-.1.05-.26-.06-.52-.12-.8-.19.05-.2.1-.39.15-.6Z"/>
        <path class="cls-2" d="M52.16,46c0,.21-.02.39-.03.57-.29,0-.57,0-.84,0-.02,0-.06-.05-.06-.08,0-.15,0-.3.02-.46,0-.03.05-.08.08-.08.27,0,.54.03.84.04Z"/>
        <path class="cls-2" d="M49.5,39.24c-.29.11-.56.21-.85.33-.07-.18-.14-.36-.22-.55.28-.12.55-.23.84-.36.08.19.15.37.24.58Z"/>
        <path class="cls-2" d="M49.2,41.27c.3-.08.58-.16.88-.24.05.2.1.39.15.6-.3.07-.58.14-.89.22-.05-.19-.09-.37-.14-.58Z"/>
        <path class="cls-2" d="M51.35,44.7c.3.03.59.06.9.1-.01.18-.03.36-.05.54,0,.02-.06.05-.09.05-.24-.01-.49-.03-.73-.06-.03,0-.08-.06-.07-.09,0-.17.03-.34.05-.53Z"/>
        <path class="cls-2" d="M50.75,44.71c.02.21.04.41.06.61-.12,0-.22.02-.33.03-.16.01-.32.03-.48.04-.03,0-.1-.04-.1-.06-.02-.17-.03-.34-.05-.52.31-.03.6-.07.9-.1Z"/>
        <path class="cls-2" d="M52.41,43.61c-.03.18-.05.35-.08.52,0,.03-.05.06-.08.06-.27-.03-.54-.07-.82-.11.02-.19.04-.37.07-.55,0-.02.06-.05.09-.04.27.04.53.08.82.12Z"/>
        <path class="cls-2" d="M52.61,39.24c.08-.2.15-.38.23-.58.28.12.55.23.84.35-.07.19-.14.36-.22.55-.28-.11-.56-.21-.85-.32Z"/>
      </g>
    </g>
  </g>
</svg>