<?xml version="1.0" encoding="UTF-8"?>
<svg id="Layer_2" data-name="Layer 2" xmlns="http://www.w3.org/2000/svg" viewBox="0 0 100 100">
  <defs>
    <style>
      .cls-1 {
        fill: #fff;
      }

      .cls-2 {
        fill: #262262;
      }

      .cls-3 {
        fill: #007bff;
      }
    </style>
  </defs>
  <g id="Layer_1-2" data-name="Layer 1">
    <g>
      <rect class="cls-2" width="100" height="100"/>
      <g>
        <polygon class="cls-1" points="22.58 59.43 28.27 61.73 28.59 60.91 22.84 58.77 22.58 59.43"/>
        <path class="cls-1" d="M35.72,26.69l-12.47,31.07,5.74,2.13,6.46-16.77v-.03s0,0,0,.01l.29-.75c.03-.09,3.22-8.7-.02-15.66"/>
        <path class="cls-1" d="M49.81,29.19c3.49,0,6.57-2.42,7.66-5.94-.34-.06-.8-.13-1.22-.2-.98,2.92-3.55,4.92-6.45,4.92s-5.47-2-6.45-4.92c-.49.09-.95.18-1.21.24,1.1,3.51,4.17,5.91,7.65,5.91"/>
        <path class="cls-1" d="M49.81,26.87c2.37,0,4.48-1.61,5.35-4-.43-.04-.87-.08-1.31-.12-4.16-.28-7.44-.07-9.38.13.87,2.38,2.98,3.98,5.34,3.98"/>
        <path class="cls-1" d="M62.84,42.54c-.16-.4-3.86-9.79-.04-17.27-1.09-.54-2.43-1.1-3.83-1.59-.13-.07-.28-.13-.43-.19-1.21,4.02-4.73,6.78-8.72,6.78s-7.45-2.72-8.69-6.67c-1.78.62-3.5,1.35-4.72,2.03,3.92,7.48.5,16.71.35,17.11l-.14.37-1.59,32.03c.98.17,6.58.52,14.92.52s14.08-.36,15.06-.53l-1.92-31.99-.24-.6Z"/>
        <path class="cls-1" d="M63.55,26.21c-3.22,6.99.26,15.83.3,15.93l7.13,17.87,5.68-2.27-13.1-31.52Z"/>
        <polygon class="cls-1" points="71.38 61.01 71.67 61.73 77.36 59.43 77.07 58.73 71.38 61.01"/>
        <path class="cls-3" d="M64.11,24.71c-.07-.17-.23-.29-.42-.32-.61-.32-1.35-.67-2.28-1.05-1.56-.64-3.07-1.14-3.81-1.37-.6-.09-1.2-.16-1.8-.22-.02,0-.04-.02-.06-.02-5.24-.5-9.28-.25-11.51,0,0,0,0,0,0,0-.8.08-1.44.16-1.89.22-.71.22-2.26.73-3.88,1.39-1.28.52-2.22.99-2.92,1.4l.08.11h0c-.21.01-.39.15-.47.34l-13.78,34.34c-.11.28.02.6.3.71l6.71,2.71c.07.03.13.04.2.04.07,0,.15-.01.22-.05.13-.06.24-.17.29-.3l6.41-16.62-1.66,29.6c0,.25.16.48.4.56.2.07,4.77.67,15.71.67h0c10.94,0,15.66-.62,15.86-.68.24-.08.4-.31.4-.56l-1.98-29.63,6.64,16.66c.05.13.16.24.29.3.07.03.14.04.21.04.07,0,.14-.01.2-.04l6.71-2.71c.13-.05.24-.16.3-.29.06-.13.06-.28,0-.42l-14.47-34.81ZM53.85,22.76c.44.03.88.07,1.31.12-.87,2.39-2.98,4-5.35,4s-4.47-1.61-5.34-3.98c1.93-.2,5.21-.41,9.38-.13M43.36,23.04c.97,2.93,3.55,4.92,6.45,4.92s5.47-1.99,6.45-4.92c.42.07.87.14,1.22.2-1.09,3.52-4.17,5.94-7.66,5.94s-6.55-2.4-7.65-5.91c.25-.05.72-.15,1.21-.24M28.27,61.73l-5.69-2.3.26-.66,5.75,2.13-.32.82ZM35.45,43.1s0-.01,0-.01v.04s-6.46,16.77-6.46,16.77l-5.73-2.13,12.47-31.07c3.24,6.96.05,15.57.02,15.66l-.29.75ZM65,75.13c-.98.17-6.72.53-15.06.53s-13.94-.35-14.92-.52l1.59-32.03.14-.38c.15-.4,3.57-9.63-.35-17.11,1.22-.68,2.93-1.4,4.72-2.03,1.24,3.96,4.73,6.67,8.69,6.67s7.51-2.77,8.72-6.78c.15.05.3.12.43.19,1.39.5,2.74,1.05,3.83,1.59-3.81,7.48-.12,16.86.04,17.27l.24.6,1.92,31.99ZM70.97,60l-7.13-17.87c-.04-.09-3.53-8.94-.3-15.93l13.1,31.52-5.68,2.27ZM71.67,61.73l-.29-.72,5.69-2.28.29.7-5.69,2.3Z"/>
      </g>
    </g>
  </g>
</svg>