<?xml version="1.0" encoding="UTF-8"?>
<svg id="Layer_2" data-name="Layer 2" xmlns="http://www.w3.org/2000/svg" viewBox="0 0 100 100">
  <defs>
    <style>
      .cls-1 {
        fill: #262262;
      }

      .cls-2 {
        fill: #fff;
        stroke: #007bff;
        stroke-miterlimit: 10;
      }

      .cls-3 {
        fill: #007bff;
      }
    </style>
  </defs>
  <g id="Layer_1-2" data-name="Layer 1">
    <g>
      <rect class="cls-1" width="100" height="100"/>
      <g>
        <g>
          <g>
            <path class="cls-2" d="M34.7,45.24v.24l-9.61-4.02,6.39-12.79s3.22,4.49,3.22,16.57Z"/>
            <polygon class="cls-2" points="34.7 45.48 34.7 48.08 24.06 43.66 25.09 41.46 34.7 45.48"/>
          </g>
          <g>
            <g>
              <path class="cls-2" d="M65.3,45.24v.24s9.61-4.02,9.61-4.02l-6.39-12.79s-3.22,4.49-3.22,16.57Z"/>
              <polygon class="cls-2" points="65.3 45.48 65.3 48.08 75.94 43.66 74.91 41.46 65.3 45.48"/>
            </g>
            <path class="cls-2" d="M50,22.77s-14.42-.4-18.52,5.9c0,0,3.22,4.49,3.22,16.57v31.34s8.1.66,15.3.66,15.3-.66,15.3-.66v-31.34c0-12.08,3.22-16.57,3.22-16.57-4.1-6.3-18.52-5.9-18.52-5.9Z"/>
          </g>
        </g>
        <g>
          <g>
            <path class="cls-3" d="M45.09,30.78v3.88h-.9l-1.71-2.07v2.07h-1.07v-3.88h.9l1.71,2.07v-2.07h1.07Z"/>
            <path class="cls-3" d="M48.46,33.9h-1.64l-.3.75h-1.12l1.71-3.88h1.08l1.72,3.88h-1.14l-.3-.75ZM48.14,33.09l-.5-1.24-.5,1.24h1Z"/>
            <path class="cls-3" d="M53.71,34.66v-2.05s-1.01,1.67-1.01,1.67h-.49l-.99-1.62v2h-1.01v-3.88h.9l1.36,2.24,1.33-2.24h.9v3.88s-1,0-1,0Z"/>
            <path class="cls-3" d="M58.6,33.81v.85h-3.11v-3.88h3.04v.85h-1.96v.65h1.72v.82h-1.72v.71h2.03Z"/>
          </g>
          <g>
            <path class="cls-3" d="M38.53,47.23c0-4.23,2.38-6.67,5.66-6.67s5.64,2.44,5.64,6.67-2.38,6.67-5.64,6.67-5.66-2.44-5.66-6.67ZM46.19,47.23c0-2.69-.84-3.7-2-3.7s-2.02,1.01-2.02,3.7.84,3.7,2.02,3.7,2-1.01,2-3.7Z"/>
            <path class="cls-3" d="M61.47,40.82v2.27l-4.53,10.56h-3.96l4.33-9.95h-3.37v1.98h-3.1v-4.86h10.63Z"/>
          </g>
        </g>
      </g>
    </g>
  </g>
</svg>