<?xml version="1.0" encoding="UTF-8"?>
<svg id="Layer_2" xmlns="http://www.w3.org/2000/svg" version="1.1" viewBox="0 0 100 100">
  <!-- Generator: Adobe Illustrator 30.0.0, SVG Export Plug-In . SVG Version: 2.1.1 Build 123)  -->
  <defs>
    <style>
      .st0 {
        fill: #262262;
      }

      .st1 {
        fill: #fff;
        stroke: #007bff;
        stroke-miterlimit: 10;
      }

      .st2 {
        fill: #007bff;
      }
    </style>
  </defs>
  <g id="Layer_1-2">
    <g>
      <rect class="st0" width="100" height="100"/>
      <g>
        <g>
          <g>
            <path class="st1" d="M34.7,45.2v.2l-9.6-4,6.4-12.8s3.2,4.5,3.2,16.6Z"/>
            <polygon class="st1" points="34.7 45.5 34.7 48.1 24.1 43.7 25.1 41.5 34.7 45.5"/>
          </g>
          <g>
            <g>
              <path class="st1" d="M65.3,45.2v.2l9.6-4-6.4-12.8s-3.2,4.5-3.2,16.6Z"/>
              <polygon class="st1" points="65.3 45.5 65.3 48.1 75.9 43.7 74.9 41.5 65.3 45.5"/>
            </g>
            <path class="st1" d="M50,22.8s-14.4-.4-18.5,5.9c0,0,3.2,4.5,3.2,16.6v31.3s8.1.7,15.3.7,15.3-.7,15.3-.7v-31.3c0-12.1,3.2-16.6,3.2-16.6-4.1-6.3-18.5-5.9-18.5-5.9Z"/>
          </g>
        </g>
        <g>
          <path class="st2" d="M45.1,30.8v3.9h-.9l-1.7-2.1v2.1h-1.1v-3.9h.9l1.7,2.1v-2.1s1.1,0,1.1,0Z"/>
          <path class="st2" d="M48.5,33.9h-1.6l-.3.8h-1.1l1.7-3.9h1.1l1.7,3.9h-1.1l-.3-.8h0ZM48.1,33.1l-.5-1.2-.5,1.2h1Z"/>
          <path class="st2" d="M53.7,34.7v-2l-1,1.7h-.5l-1-1.6v2h-1v-3.9h.9l1.4,2.2,1.3-2.2h.9v3.9h-1,0Z"/>
          <path class="st2" d="M58.6,33.8v.8h-3.1v-3.9h3v.9h-2v.6h1.7v.8h-1.7v.7s2,0,2,0Z"/>
        </g>
      </g>
    </g>
  </g>
</svg>