<?xml version="1.0" encoding="UTF-8"?>
<svg id="Layer_2" xmlns="http://www.w3.org/2000/svg" version="1.1" viewBox="0 0 100 100">
  <!-- Generator: Adobe Illustrator 30.0.0, SVG Export Plug-In . SVG Version: 2.1.1 Build 123)  -->
  <defs>
    <style>
      .st0 {
        fill: #262262;
      }

      .st1 {
        fill: #fff;
        stroke: #007bff;
        stroke-miterlimit: 10;
      }

      .st2 {
        fill: #007bff;
      }
    </style>
  </defs>
  <g id="Layer_1-2">
    <g>
      <rect class="st0" width="100" height="100"/>
      <g>
        <g>
          <g>
            <path class="st1" d="M34.7,45.2v.2l-9.6-4,6.4-12.8s3.2,4.5,3.2,16.6Z"/>
            <polygon class="st1" points="34.7 45.5 34.7 48.1 24.1 43.7 25.1 41.5 34.7 45.5"/>
          </g>
          <g>
            <g>
              <path class="st1" d="M65.3,45.2v.2l9.6-4-6.4-12.8s-3.2,4.5-3.2,16.6Z"/>
              <polygon class="st1" points="65.3 45.5 65.3 48.1 75.9 43.7 74.9 41.5 65.3 45.5"/>
            </g>
            <path class="st1" d="M50,22.8s-14.4-.4-18.5,5.9c0,0,3.2,4.5,3.2,16.6v31.3s8.1.7,15.3.7,15.3-.7,15.3-.7v-31.3c0-12.1,3.2-16.6,3.2-16.6-4.1-6.3-18.5-5.9-18.5-5.9Z"/>
          </g>
        </g>
        <g>
          <path class="st2" d="M38.5,47.2c0-4.2,2.4-6.7,5.7-6.7s5.6,2.4,5.6,6.7-2.4,6.7-5.6,6.7-5.7-2.4-5.7-6.7ZM46.2,47.2c0-2.7-.8-3.7-2-3.7s-2,1-2,3.7.8,3.7,2,3.7,2-1,2-3.7Z"/>
          <path class="st2" d="M61.5,40.8v2.3l-4.5,10.6h-4l4.3-10h-3.4v2h-3.1v-4.9s10.6,0,10.6,0Z"/>
        </g>
      </g>
    </g>
  </g>
</svg>