<?xml version="1.0" encoding="UTF-8"?>
<svg id="Layer_2" data-name="Layer 2" xmlns="http://www.w3.org/2000/svg" viewBox="0 0 100 100">
  <defs>
    <style>
      .cls-1 {
        fill: #fff;
      }

      .cls-2 {
        fill: #262262;
      }

      .cls-3 {
        fill: #007bff;
      }
    </style>
  </defs>
  <g id="Layer_1-2" data-name="Layer 1">
    <g>
      <rect class="cls-2" width="100" height="100"/>
      <g>
        <path class="cls-1" d="M44.83,22.67h10.79s2.77,1.31,2.77,5.01c0,3.7-1.62,9.33-1.62,9.33h-12.71l-3.17-10.88,3.93-3.45Z"/>
        <polygon class="cls-1" points="68.7 46.38 68.7 45.43 65.46 47.01 65.46 47.14 67.14 47.14 68.7 46.38"/>
        <path class="cls-1" d="M32.65,30.22c.63,1.35,3.25,7.24,3.25,11.95v4.96h28.21v-4.96c0-4.71,2.62-10.6,3.25-11.95-.53-.92-3.15-2.24-6.14-3.37.49,1.31.75,2.74.75,4.22,0,6.7-5.43,12.13-12.13,12.13s-12.13-5.43-12.13-12.13c0-1.43.25-2.8.7-4.07-2.83,1.09-5.25,2.34-5.76,3.22"/>
        <path class="cls-1" d="M34.54,42.18c0-3.63-1.73-8.17-2.67-10.35l-1.17,2.32v9.48l3.84,1.88v-3.32Z"/>
        <polygon class="cls-1" points="30.7 45.14 30.7 46.09 32.86 47.14 34.54 47.14 34.54 47.01 30.7 45.14"/>
        <path class="cls-1" d="M68.13,31.83c-.93,2.18-2.67,6.73-2.67,10.35v3.32l3.24-1.58v-10.96l-.57-1.13Z"/>
        <polygon class="cls-1" points="26.25 42.96 25.86 43.74 30.7 46.09 30.7 45.14 26.25 42.96"/>
        <polygon class="cls-1" points="34.54 47.95 34.54 47.14 32.86 47.14 34.54 47.95"/>
        <polygon class="cls-1" points="26.86 41.75 30.7 43.62 30.7 34.15 26.86 41.75"/>
        <polygon class="cls-1" points="68.7 32.96 68.7 43.92 73.14 41.75 68.7 32.96"/>
        <polygon class="cls-1" points="67.14 47.14 65.46 47.14 65.46 47.95 67.14 47.14"/>
        <polygon class="cls-1" points="74.14 43.74 73.75 42.96 68.7 45.43 68.7 46.38 74.14 43.74"/>
        <path class="cls-3" d="M31.87,31.83c.93,2.18,2.67,6.72,2.67,10.35v3.32l-3.84-1.88v1.51l3.84,1.88v.13h1.36v-4.96c0-4.71-2.62-10.6-3.25-11.95.51-.88,2.93-2.12,5.76-3.22.21-.6.47-1.18.77-1.73-.69.25-1.47.54-2.26.86-4.52,1.85-5.42,3.08-5.66,3.86l-.57,1.13v3.01l1.17-2.32Z"/>
        <path class="cls-3" d="M67.35,30.22c-.63,1.35-3.25,7.24-3.25,11.95v4.96h1.36v-.13l3.24-1.58v-1.51l-3.24,1.58v-3.32c0-3.62,1.74-8.17,2.67-10.35l.57,1.13v-3.05c-.28-.78-1.28-2-5.63-3.77-.95-.39-1.88-.73-2.67-1,.31.55.58,1.13.8,1.73,2.99,1.13,5.61,2.45,6.14,3.37"/>
        <polygon class="cls-3" points="68.7 47.14 68.7 46.38 67.14 47.14 68.7 47.14"/>
        <polygon class="cls-3" points="30.7 47.14 32.86 47.14 30.7 46.09 30.7 47.14"/>
        <path class="cls-1" d="M49.84,43.2c6.7,0,12.13-5.43,12.13-12.13,0-1.48-.27-2.9-.76-4.22-.69-.26-1.39-.51-2.1-.74.09.49.1.99.03,1.52-.26,2.01-1.57,7.13-1.63,7.35-.04.18-.13.28-.31.42-.19.14-.46.09-.52.07l-4.76-1.27-1.24,1.8v5.56c0,.38-.3.68-.68.68s-.68-.3-.68-.68v-5.56l-1.24-1.8-4.76,1.27c-.19.06-.41,0-.52-.07-.16-.09-.27-.24-.32-.42-.05-.22-1.36-5.34-1.63-7.35-.07-.53-.06-1.04.04-1.52-.84.28-1.68.57-2.48.89-.46,1.27-.7,2.64-.7,4.07,0,6.7,5.43,12.13,12.13,12.13M51.28,37.02c.13-.13.3-.2.48-.2s.35.07.48.2.2.3.2.48-.07.35-.2.48c-.13.13-.3.2-.48.2s-.35-.07-.48-.2c-.13-.13-.2-.3-.2-.48s.07-.35.2-.48"/>
        <path class="cls-3" d="M51.77,38.18c.18,0,.35-.07.48-.2.13-.13.2-.3.2-.48s-.07-.35-.2-.48-.3-.2-.48-.2-.35.07-.48.2c-.13.13-.2.3-.2.48s.07.35.2.48c.13.13.3.2.48.2"/>
        <path class="cls-3" d="M55.91,22.16h0c-.1-.06-.22-.1-.36-.1h-11.09c-.13,0-.25.04-.36.11h0c-1.15.71-1.99,1.49-2.53,2.33-.41.13-1.3.41-2.38.79-.3.55-.56,1.13-.77,1.73.81-.31,1.64-.61,2.48-.88-.09.49-.11.99-.04,1.52.27,2.01,1.57,7.13,1.63,7.35.04.18.16.32.32.42.11.06.33.13.52.07l4.76-1.27,1.24,1.8v5.56c0,.38.3.68.68.68s.68-.3.68-.68v-5.56l1.24-1.8,4.76,1.27c.06.01.33.07.52-.07.18-.14.27-.24.31-.42.06-.22,1.36-5.34,1.63-7.35.07-.53.06-1.04-.04-1.52.71.23,1.41.48,2.1.74-.22-.6-.49-1.18-.8-1.73-.89-.31-1.61-.54-1.97-.65-.54-.84-1.38-1.61-2.53-2.33M54.58,23.41l-.24.65h-8.68l-.24-.65h9.15ZM43.64,33.99c-.37-1.48-1.23-5.01-1.43-6.53-.18-1.39.43-2.58,1.91-3.68l3.36,9.18-3.84,1.02ZM51.02,33.12l-1.02,1.48-1.02-1.48-2.82-7.7h7.68l-2.82,7.7ZM57.79,27.46c-.2,1.51-1.06,5.05-1.43,6.53l-3.84-1.02,3.36-9.18c1.48,1.1,2.09,2.29,1.91,3.68"/>
        <path class="cls-1" d="M36.41,69.75l1.14,6.56c1.98.19,5.69.4,12.45.4s10.4-.2,12.39-.39l1.14-6.57s.24.82.57,1.92v-24.53h-28.21v24.34c.3-1.01.51-1.73.51-1.73"/>
        <path class="cls-3" d="M75.67,43.75l-6.94-13.75s-.02-.06-.03-.09v3.05l4.44,8.79-4.44,2.17v1.51l5.05-2.47.39.78-5.44,2.64v.75h-1.56l-1.68.81v-.81h-1.36v24.53c.43,1.47,1.01,3.45,1.36,4.68v-26.89l9.9-4.8c.16-.08.29-.22.35-.39.06-.17.05-.36-.04-.52"/>
        <path class="cls-3" d="M35.9,47.14h-1.36v.81l-1.68-.81h-2.16v-1.05l-4.84-2.35.4-.78,4.45,2.18v-1.51l-3.84-1.88,3.84-7.6v-3.01l-6.37,12.62c-.08.16-.1.35-.04.52.06.17.18.31.35.39l9.9,4.8v26.69c.37-1.3.95-3.26,1.36-4.68v-24.34Z"/>
        <path class="cls-3" d="M50,76.71c-6.76,0-10.47-.21-12.45-.39l.24,1.39c2.15.19,5.86.37,12.21.37h0c6.29,0,10-.18,12.15-.36l.24-1.39c-2,.19-5.7.39-12.4.39"/>
        <polygon class="cls-3" points="37.79 77.7 35.85 71.28 35.83 66.54 37.79 77.7"/>
        <polygon class="cls-3" points="62.16 77.7 64.1 71.28 64.12 66.54 62.16 77.7"/>
      </g>
    </g>
  </g>
</svg>