<?xml version="1.0" encoding="UTF-8"?>
<svg id="Layer_4" xmlns="http://www.w3.org/2000/svg" version="1.1" viewBox="0 0 100 100">
  <!-- Generator: Adobe Illustrator 30.0.0, SVG Export Plug-In . SVG Version: 2.1.1 Build 123)  -->
  <defs>
    <style>
      .st0 {
        fill: #262262;
      }

      .st1 {
        fill: #fff;
        stroke: #007bff;
        stroke-linecap: round;
        stroke-linejoin: round;
      }

      .st2 {
        fill: #007bff;
      }
    </style>
  </defs>
  <rect class="st0" width="100" height="100"/>
  <g>
    <g>
      <path class="st1" d="M33.3,56.1l-12-2.2-1.1,3.8,12.9,2.2c0-.4.1-1.8.2-3.8h-.1Z"/>
      <path class="st1" d="M33.3,54.8h0v-1.5h0v-9.3c0-.6,0-1.2-.1-1.8v-.2c0-.5,0-.9-.2-1.5v-.5c0-.6-.1-1.2-.2-1.6v-.2c0-.5-.2-.9-.2-1.4v-.5c-.1-.6-.2-1.1-.4-1.5h0c-.1-.6-.2-1.1-.5-1.5,0-.1,0-.2-.1-.4-.1-.5-.4-.9-.6-1.4h0c-.2-.5-.4-.8-.6-1.2,0,0,0-.2-.1-.4-.2-.4-.5-.7-.7-1.1l-7.6,24.9v.2l12,2.2v-1.3h-.6Z"/>
    </g>
    <g>
      <g>
        <path class="st1" d="M66.7,56.1l12-2.2,1.1,3.8-12.9,2.2c0-.4-.1-1.8-.2-3.8h.1Z"/>
        <path class="st1" d="M66.7,54.8h0v-1.5h0v-9.3c0-.6,0-1.2.1-1.8v-.2c0-.5,0-.9.2-1.5v-.5c0-.6.1-1.2.2-1.6v-.2c0-.5.2-.9.2-1.4v-.5c.1-.6.2-1.1.4-1.5h0c.1-.6.2-1.1.5-1.5,0-.1,0-.2.1-.4.1-.5.4-.9.6-1.4h0c.2-.5.4-.8.6-1.2,0,0,0-.2.1-.4.2-.4.5-.7.7-1.1l7.6,24.9v.2l-12,2.2v-1.3h.6Z"/>
      </g>
      <path class="st1" d="M71,28.8s-5.4-6-21-6-21,6-21,6c6.1,8.1,4,31.3,4,31.3v15.9c1.2,1.1,17,1.3,17,1.3,0,0,15.9-.2,17-1.3v-15.9s-2.1-23.1,4-31.3Z"/>
    </g>
    <g>
      <path class="st2" d="M49.9,32.1c4.7,0,8.8-3.2,10.2-7.9-.2,0-.5-.1-.7-.2h-.6c-1.3,4.1-4.8,6.9-8.9,6.9s-7.6-2.8-8.9-6.9h-.2c-.4,0-.6.2-.9.4,1.4,4.6,5.5,7.8,10.1,7.8"/>
      <path class="st2" d="M49.9,28.1c-2.7,0-5.2-1.9-6.2-4.6-.5,0-.9.1-1.3.1,1.2,3.4,4.1,5.8,7.5,5.8s6.3-2.2,7.5-5.6c-.5,0-.8-.1-1.3-.2-1.1,2.7-3.5,4.6-6.2,4.6"/>
    </g>
  </g>
</svg>