<?xml version="1.0" encoding="UTF-8"?>
<svg id="Layer_4" xmlns="http://www.w3.org/2000/svg" version="1.1" viewBox="0 0 100 100">
  <!-- Generator: Adobe Illustrator 30.0.0, SVG Export Plug-In . SVG Version: 2.1.1 Build 123)  -->
  <defs>
    <style>
      .st0 {
        fill: #262262;
      }

      .st1 {
        fill: #fff;
        stroke: #007bff;
        stroke-linecap: round;
        stroke-linejoin: round;
      }

      .st2 {
        fill: #007bff;
      }
    </style>
  </defs>
  <rect class="st0" width="100" height="100"/>
  <g>
    <g>
      <path class="st1" d="M35.8,55.2l-10.2-1.9-.9,3.2,11,1.9c0-.3.1-1.5.2-3.2Z"/>
      <path class="st1" d="M35.8,54.1s0,0,0-.1c0-.4,0-.8,0-1.2,0,0,0,0,0-.1,0-.4,0-.8,0-1.2,0,0,0-.2,0-.2,0-.4,0-.9,0-1.4,0,0,0-.1,0-.2,0-.4,0-.8,0-1.2,0-.1,0-.2,0-.3,0-.5,0-1,0-1.4,0,0,0-.1,0-.2,0-.4,0-.8,0-1.3,0-.1,0-.3,0-.4,0-.5,0-1-.1-1.5,0,0,0-.1,0-.2,0-.4,0-.8-.2-1.3,0-.1,0-.3,0-.4,0-.5-.1-1-.2-1.4,0,0,0-.1,0-.2,0-.4-.2-.8-.2-1.2,0-.1,0-.2,0-.4-.1-.5-.2-.9-.3-1.3,0,0,0,0,0-.1-.1-.4-.2-.8-.4-1.2,0-.1,0-.2-.1-.3-.1-.4-.3-.8-.5-1.2,0,0,0,0,0,0-.2-.4-.3-.7-.5-1,0,0,0-.2-.1-.3-.2-.3-.4-.6-.6-.9l-6.5,21.2v.2c0,0,10.2,1.9,10.2,1.9,0-.3,0-.7,0-1.1Z"/>
    </g>
    <g>
      <g>
        <path class="st1" d="M64.2,55.2l10.2-1.9.9,3.2-11,1.9c0-.3-.1-1.5-.2-3.2Z"/>
        <path class="st1" d="M64.2,54.1s0,0,0-.1c0-.4,0-.8,0-1.2,0,0,0,0,0-.1,0-.4,0-.8,0-1.2,0,0,0-.2,0-.2,0-.4,0-.9,0-1.4,0,0,0-.1,0-.2,0-.4,0-.8,0-1.2,0-.1,0-.2,0-.3,0-.5,0-1,0-1.4,0,0,0-.1,0-.2,0-.4,0-.8,0-1.3,0-.1,0-.3,0-.4,0-.5,0-1,.1-1.5,0,0,0-.1,0-.2,0-.4,0-.8.2-1.3,0-.1,0-.3,0-.4,0-.5.1-1,.2-1.4,0,0,0-.1,0-.2,0-.4.2-.8.2-1.2,0-.1,0-.2,0-.4.1-.5.2-.9.3-1.3,0,0,0,0,0-.1.1-.4.2-.8.4-1.2,0-.1,0-.2.1-.3.1-.4.3-.8.5-1.2,0,0,0,0,0,0,.2-.4.3-.7.5-1,0,0,0-.2.1-.3.2-.3.4-.6.6-.9l6.5,21.2v.2c0,0-10.2,1.9-10.2,1.9,0-.3,0-.7,0-1.1Z"/>
      </g>
      <path class="st1" d="M67.9,32s-4.6-5.1-17.9-5.1-17.9,5.1-17.9,5.1c5.2,6.9,3.4,26.6,3.4,26.6v13.5c1,.9,14.5,1.1,14.5,1.1,0,0,13.5-.2,14.5-1.1v-13.5s-1.8-19.7,3.4-26.6Z"/>
    </g>
    <g>
      <path class="st2" d="M49.9,34.8c4,0,7.5-2.7,8.7-6.7-.2,0-.4-.1-.6-.2h-.5c-1.1,3.5-4.1,5.9-7.6,5.9s-6.5-2.4-7.6-5.9h-.2c-.3,0-.5.2-.8.3,1.2,3.9,4.7,6.6,8.6,6.6"/>
      <path class="st2" d="M49.9,31.4c-2.3,0-4.4-1.6-5.3-3.9-.4,0-.8.1-1.1.1,1,2.9,3.5,4.9,6.4,4.9s5.4-1.9,6.4-4.8c-.4,0-.7-.1-1.1-.2-.9,2.3-3,3.9-5.3,3.9"/>
    </g>
  </g>
</svg>