<?xml version="1.0" encoding="UTF-8"?>
<svg id="Layer_2" data-name="Layer 2" xmlns="http://www.w3.org/2000/svg" viewBox="0 0 100 100">
  <defs>
    <style>
      .cls-1 {
        fill: #fff;
      }

      .cls-2 {
        fill: #262262;
      }

      .cls-3 {
        fill: #005ca0;
      }

      .cls-4 {
        fill: #007bff;
      }
    </style>
  </defs>
  <g id="Layer_1-2" data-name="Layer 1">
    <g>
      <rect class="cls-2" width="100" height="100"/>
      <g>
        <polygon class="cls-1" points="19.13 40.34 49.89 70.88 81.01 40.61 66.22 33.65 54.02 35.47 44.45 35.02 40.24 34.31 35.03 33.17 19.13 40.34"/>
        <rect class="cls-3" x="18.37" y="36.25" width="18.99" height=".71" transform="translate(-12.15 13.9) rotate(-23.15)"/>
        <rect class="cls-3" x="24.82" y="42.84" width="13.61" height=".71" transform="translate(-20.32 30.23) rotate(-39.77)"/>
        <rect class="cls-3" x="73.32" y="29.49" width=".72" height="15.81" transform="translate(8.22 87.81) rotate(-64.51)"/>
        <rect class="cls-3" x="68.74" y="36.43" width=".71" height="13.22" transform="translate(-7.97 69.25) rotate(-50.7)"/>
        <rect class="cls-4" x="38.16" y="29.76" width="23.81" height="5.63"/>
        <path class="cls-3" d="M62.17,35.59h-24.21v-6.03h24.21v6.03ZM38.36,35.19h23.42v-5.24h-23.42v5.24Z"/>
        <path class="cls-1" d="M62.16,35.57h-24.17v-5.99h24.17v5.99ZM38.34,35.21h23.46v-5.28h-23.46v5.28Z"/>
        <path class="cls-3" d="M62.35,35.77h-24.57v-6.39h24.57v6.39ZM38.54,35.02h23.06v-4.88h-23.06v4.88Z"/>
        <path class="cls-4" d="M68.63,46.09v-11.74l-6.74-4.59-2.56,13.35s-.18-1.96,9.3,2.98Z"/>
        <path class="cls-3" d="M68.82,46.42l-.29-.15c-7.09-3.7-8.62-3.43-8.92-3.26-.04.02-.07.05-.08.07l-.28,1.45-.13-1.39s0-.08.02-.17l2.6-13.54,7.07,4.82v12.17ZM60.07,42.53c1.38,0,4.23,1.1,8.36,3.24v-11.31l-6.4-4.36-2.4,12.49c.12-.03.27-.05.44-.05Z"/>
        <path class="cls-1" d="M68.8,46.39l-.26-.14c-5.3-2.77-7.53-3.34-8.47-3.34-.35,0-.52.08-.56.16l-.26,1.33-.11-1.27s0-.08.02-.16l2.6-13.51,7.04,4.8v12.13ZM60.08,42.55c1.37,0,4.26,1.12,8.37,3.25v-11.36l-6.43-4.38-2.41,12.55c.12-.04.28-.06.47-.06Z"/>
        <path class="cls-3" d="M69,46.72l-.55-.29c-5.26-2.75-7.46-3.32-8.37-3.32-.24,0-.34.04-.38.06l-.51,2.66-.24-2.67s0-.13.03-.23l2.65-13.79,7.37,5.03v12.57ZM60.08,42.35c1.71,0,5.33,1.66,8.17,3.12v-10.93l-6.1-4.16-2.3,11.97c.07,0,.15-.01.22-.01ZM59.39,42.88v.04s.03-.04.05-.06l-.05.02Z"/>
        <path class="cls-4" d="M31.43,46.09v-11.74l6.74-4.59,2.56,13.35s.18-1.96-9.3,2.98Z"/>
        <path class="cls-3" d="M31.23,46.42v-12.17l7.07-4.82,2.6,13.54c.03.09.03.15.02.17l-.13,1.4-.28-1.46s-.03-.04-.08-.07c-.3-.17-1.84-.44-8.92,3.26l-.29.15ZM31.62,34.45v11.31c4.63-2.4,7.65-3.49,8.8-3.19l-2.4-12.49-6.4,4.36Z"/>
        <path class="cls-1" d="M31.25,46.39v-12.13l7.04-4.8,2.59,13.51c.03.08.03.14.02.16l-.11,1.27-.26-1.33c-.04-.08-.21-.16-.56-.16-.94,0-3.17.58-8.47,3.34l-.26.14ZM31.6,34.44v11.36c4.11-2.13,7-3.25,8.37-3.25.19,0,.35.02.47.06l-2.41-12.55-6.43,4.38Z"/>
        <path class="cls-3" d="M31.05,46.72v-12.57l7.37-5.03,2.65,13.79c.03.1.03.19.03.23l-.24,2.67-.51-2.66s-.14-.06-.38-.06c-.92,0-3.12.58-8.38,3.32l-.55.29ZM31.8,34.55v10.93c2.84-1.46,6.46-3.13,8.18-3.13.08,0,.15,0,.22,0l-2.3-11.97-6.1,4.16ZM40.61,42.86s.04.04.06.06v-.04s-.06-.02-.06-.02Z"/>
        <path class="cls-4" d="M50,53.47l9.27-9.41c-.57-2.79,4.7.02,4.7.02l-13.97,14.26-13.97-14.26s5.27-2.81,4.7-.02l9.27,9.41Z"/>
        <path class="cls-3" d="M50,58.62l-14.3-14.59.23-.12c.36-.19,3.58-1.86,4.67-1.05.31.23.42.61.34,1.14l9.06,9.2,9.06-9.2c-.09-.53.03-.91.34-1.14,1.09-.82,4.31.86,4.67,1.05l.23.12-14.3,14.59ZM36.35,44.13l13.64,13.93,13.64-13.93c-1.07-.53-3.31-1.48-4.01-.96-.2.15-.25.43-.17.85l.02.1-9.48,9.63-9.48-9.63.02-.1c.08-.42.03-.71-.17-.85-.7-.52-2.95.42-4.01.96Z"/>
        <polygon class="cls-4" points="50 53.57 54.88 48.46 50 48.46 45.09 48.46 50 53.57"/>
        <path class="cls-3" d="M50,53.85l-5.37-5.59h10.72l-5.35,5.59ZM45.55,48.65l4.44,4.63,4.42-4.63h-8.87Z"/>
      </g>
    </g>
  </g>
</svg>