<?xml version="1.0" encoding="UTF-8"?>
<svg id="Layer_2" data-name="Layer 2" xmlns="http://www.w3.org/2000/svg" viewBox="0 0 100 100">
  <defs>
    <style>
      .cls-1 {
        fill: #fff;
      }

      .cls-2 {
        fill: #262262;
      }

      .cls-3 {
        fill: #005ca0;
      }

      .cls-4 {
        fill: #007bff;
      }
    </style>
  </defs>
  <g id="Layer_1-2" data-name="Layer 1">
    <g>
      <rect class="cls-2" width="100" height="100"/>
      <g>
        <polygon class="cls-1" points="13.83 39.83 49.87 75.62 86.33 40.15 70.12 32.26 54.38 35.9 44.11 35.9 33.53 35.59 32.46 31.43 13.83 39.83"/>
        <rect class="cls-3" x="12.93" y="35.04" width="22.25" height=".84" transform="translate(-11.95 12.23) rotate(-23.02)"/>
        <polygon class="cls-3" points="22.62 48.6 22.07 47.97 32.19 39.21 32.74 39.85 22.62 48.6"/>
        <rect class="cls-3" x="77.33" y="27.12" width=".84" height="18.53" transform="translate(11.45 90.9) rotate(-64.51)"/>
        <polygon class="cls-3" points="78.09 48.21 68.42 39.85 68.97 39.21 78.64 47.58 78.09 48.21"/>
        <rect class="cls-4" x="35.73" y="29.2" width="29.55" height="8.85"/>
        <path class="cls-3" d="M65.48,38.26h-29.97v-9.27h29.97v9.27ZM35.93,37.84h29.13v-8.43h-29.13v8.43Z"/>
        <path class="cls-4" d="M29.76,33.29s4.4,17.18,20.75,17.18,21.27-17.18,21.27-17.18l-6.6-4.09s-.94,14.98-14.41,14.98-15.04-14.98-15.04-14.98l-5.97,4.09Z"/>
        <path class="cls-3" d="M50.5,50.68c-16.32,0-20.91-17.17-20.95-17.34l-.04-.14.12-.08,6.26-4.28.04.35c.02.15,1.71,14.8,14.83,14.8s14.19-14.64,14.2-14.79l.02-.35,7.03,4.35-.04.15c-.05.17-5.16,17.34-21.47,17.34ZM29.99,33.37c.47,1.64,5.29,16.89,20.51,16.89s20.48-15.19,21.02-16.88l-6.18-3.82c-.25,2.26-2.23,14.84-14.58,14.84s-14.85-12.58-15.2-14.83l-5.57,3.81Z"/>
      </g>
    </g>
  </g>
</svg>