<?xml version="1.0" encoding="UTF-8"?>
<svg id="Layer_4" xmlns="http://www.w3.org/2000/svg" version="1.1" viewBox="0 0 100 100">
  <!-- Generator: Adobe Illustrator 30.0.0, SVG Export Plug-In . SVG Version: 2.1.1 Build 123)  -->
  <defs>
    <style>
      .st0 {
        fill: #262262;
      }

      .st1 {
        fill: #fff;
        stroke: #007bff;
        stroke-linecap: round;
        stroke-linejoin: round;
      }

      .st2 {
        fill: #007bff;
      }
    </style>
  </defs>
  <rect class="st0" width="100" height="100"/>
  <g>
    <path class="st1" d="M66.1,31.9s-4.1-5.1-16.1-5.1-16.1,5.1-16.1,5.1c4.7,6.9,3.1,15.4,3.1,15.4v24.7c.9.9,13,1.1,13,1.1,0,0,12.1-.2,13-1.1v-24.7s-1.7-8.5,3.1-15.4Z"/>
    <path class="st1" d="M33.9,31.9s-.2,10,3.1,15.4c0,0,1.6-8.5-3.1-15.4Z"/>
    <path class="st1" d="M66.1,31.9s.2,10-3.1,15.4c0,0-1.6-8.5,3.1-15.4Z"/>
    <g>
      <path class="st2" d="M50,34.7c4,0,7.5-2.7,8.7-6.7-.2,0-.4-.1-.6-.2h-.5c-1.1,3.5-4.1,5.9-7.6,5.9s-6.5-2.4-7.6-5.9h-.2c-.3,0-.5.2-.8.3,1.2,3.9,4.7,6.6,8.6,6.6"/>
      <path class="st2" d="M50,31.3c-2.3,0-4.4-1.6-5.3-3.9-.4,0-.8.1-1.1.1,1,2.9,3.5,4.9,6.4,4.9s5.4-1.9,6.4-4.8c-.4,0-.7-.1-1.1-.2-.9,2.3-3,3.9-5.3,3.9"/>
    </g>
  </g>
</svg>