<?xml version="1.0" encoding="UTF-8"?>
<svg id="Layer_4" xmlns="http://www.w3.org/2000/svg" version="1.1" viewBox="0 0 100 100">
  <!-- Generator: Adobe Illustrator 30.0.0, SVG Export Plug-In . SVG Version: 2.1.1 Build 123)  -->
  <defs>
    <style>
      .st0 {
        fill: #262262;
      }

      .st1 {
        fill: #fff;
        stroke: #007bff;
        stroke-linecap: round;
        stroke-linejoin: round;
      }

      .st2 {
        fill: #007bff;
      }
    </style>
  </defs>
  <rect class="st0" width="100" height="100"/>
  <g>
    <path class="st1" d="M66.1,31.9s-4.1-5.1-16.1-5.1-16.1,5.1-16.1,5.1c4.7,6.9,3.1,15.4,3.1,15.4v24.7c.9.9,13,1.1,13,1.1,0,0,12.1-.2,13-1.1v-24.7s-1.7-8.5,3.1-15.4Z"/>
    <path class="st1" d="M71.4,48.1l-7.2,2.6h0l-.7-2h0l-.5-1.3s-1.7-8.5,3-15.4l4.6,14,.7,2.2h.1Z"/>
    <polygon class="st1" points="71.4 48.1 64.2 50.6 64.2 50.6 63.5 48.6 63.5 48.6 70.7 45.9 71.4 48.1"/>
    <path class="st1" d="M37,47.3l-.5,1.3h0l-.7,2h0l-7.1-2.6.7-2.2,4.6-14c4.7,6.9,3.1,15.4,3.1,15.4h0Z"/>
    <polygon class="st1" points="36.5 48.6 35.8 50.6 35.7 50.6 28.6 48.1 29.3 45.9 36.5 48.6 36.5 48.6"/>
    <g>
      <path class="st2" d="M50,34.7c4,0,7.5-2.7,8.7-6.7-.2,0-.4-.1-.6-.2h-.5c-1.1,3.5-4.1,5.9-7.6,5.9s-6.5-2.4-7.6-5.9h-.2c-.3,0-.5.2-.8.3,1.2,3.9,4.7,6.6,8.6,6.6"/>
      <path class="st2" d="M50,31.3c-2.3,0-4.4-1.6-5.3-3.9-.4,0-.8.1-1.1.1,1,2.9,3.5,4.9,6.4,4.9s5.4-1.9,6.4-4.8c-.4,0-.7-.1-1.1-.2-.9,2.3-3,3.9-5.3,3.9"/>
    </g>
  </g>
  <g>
    <path class="st2" d="M45.6,42.1c.5,0,.8.3,1,.6.7,1.2-.6,2.5-1.8,1.8-.6-.4-.8-1.2-.4-1.8.2-.4.6-.6,1-.6h.2Z"/>
    <path class="st2" d="M53.5,42.1c0,0,.2,0,.2,0,.9.2,1.2,1.3.7,2.1-.5.7-1.5.7-2.1,0-.7-.9-.2-2,.9-2.2h.2Z"/>
    <path class="st2" d="M46.4,57.9h0c-.5,0-.7-.4-.7-.8,0-3.7,0-5.6,0-5.8,0,0,0,0,0,0h-.3s0,0,0,0h0c0,1.9,0,3.9,0,5.8s-.2.8-.7.8h0c-.5,0-.7-.4-.7-.9,0-3.3,0-6.6,0-9.9,0,0,0,0,0,0h-.2s0,0,0,0c0,2,0,3.3,0,3.7,0,.2,0,.3-.3.4-.4.3-.8,0-.8-.5,0-2.2,0-3.4,0-3.8,0-.8.2-1.6,1.1-1.7.4,0,.8-.1,1.1-.2.9,0,1.8,0,2.6.2.4,0,.6.3.8.5.3.5.3.9.3,1.5,0,1.2,0,2.4,0,3.6,0,.1,0,.3-.2.4-.2.1-.4.2-.6,0-.3-.1-.3-.4-.3-.7,0,0,0-1.2,0-3.5,0,0,0,0,0,0h-.2s0,0,0,0c0,3.2,0,6.4,0,9.7,0,.4,0,.6,0,.7-.1.2-.3.3-.6.4Z"/>
    <path class="st2" d="M52.6,57.9h-.1c-.4,0-.7-.4-.7-.9,0-1.5,0-2.7,0-3.6,0,0,0,0,0,0h-1.5s0,0,0,0c0,0,0,0,0,0l1.6-6.1s0,0,0,0c0,0,0,0,0,0h-.2s0,0,0,0c-.4,1.5-.8,2.8-1.1,3.8,0,.3-.2.5-.5.5-.4,0-.7-.4-.6-.8.6-2.1.9-3.3,1-3.6.2-.7.3-1.6,1.1-1.9.2,0,.4-.1.7-.2.8-.1,1.7-.1,2.7,0,.3,0,.5,0,.8.2.7.2.7,1,.9,1.6.7,2.3,1,3.6,1.1,3.9.2.7-.9,1.1-1.1.2-.3-1-.6-2.3-1.1-3.9,0,0,0,0,0,0h-.2s0,0,0,0c0,0,0,0,0,0,0,.2,0,.2,0,.3.6,2.3,1.1,4.3,1.5,5.9,0,0,0,0,0,0,0,0,0,0,0,0h-1.4s0,0,0,0c0,2,0,3.2,0,3.7,0,.2,0,.4-.2.6-.2.2-.7.3-.9,0-.2-.2-.3-.4-.3-.6,0-1.2,0-2.4,0-3.7,0,0,0,0,0,0h-.3s0,0,0,0h0c0,1.3,0,2.5,0,3.5,0,.3,0,.5-.1.7-.1.2-.3.3-.6.4Z"/>
  </g>
</svg>