<?xml version="1.0" encoding="UTF-8"?>
<svg id="Layer_4" xmlns="http://www.w3.org/2000/svg" version="1.1" viewBox="0 0 100 100">
  <!-- Generator: Adobe Illustrator 30.0.0, SVG Export Plug-In . SVG Version: 2.1.1 Build 123)  -->
  <defs>
    <style>
      .st0 {
        fill: #262262;
      }

      .st1 {
        fill: #fff;
        stroke: #007bff;
        stroke-linecap: round;
        stroke-linejoin: round;
      }

      .st2 {
        fill: #007bff;
      }
    </style>
  </defs>
  <rect class="st0" width="100" height="100"/>
  <g>
    <path class="st1" d="M66.1,31.9s-4.1-5.1-16.1-5.1-16.1,5.1-16.1,5.1c4.7,6.9,3.1,15.4,3.1,15.4v24.7c.9.9,13,1.1,13,1.1,0,0,12.1-.2,13-1.1v-24.7s-1.7-8.5,3.1-15.4Z"/>
    <path class="st1" d="M71.4,48.1l-7.2,2.6h0l-.7-2h0l-.5-1.3s-1.7-8.5,3-15.4l4.6,14,.7,2.2h.1Z"/>
    <polygon class="st1" points="71.4 48.1 64.2 50.6 64.2 50.6 63.5 48.6 63.5 48.6 70.7 45.9 71.4 48.1"/>
    <path class="st1" d="M37,47.3l-.5,1.3h0l-.7,2h0l-7.1-2.6.7-2.2,4.6-14c4.7,6.9,3.1,15.4,3.1,15.4h0Z"/>
    <polygon class="st1" points="36.5 48.6 35.8 50.6 35.7 50.6 28.6 48.1 29.3 45.9 36.5 48.6 36.5 48.6"/>
    <g>
      <path class="st2" d="M50,34.7c4,0,7.5-2.7,8.7-6.7-.2,0-.4-.1-.6-.2h-.5c-1.1,3.5-4.1,5.9-7.6,5.9s-6.5-2.4-7.6-5.9h-.2c-.3,0-.5.2-.8.3,1.2,3.9,4.7,6.6,8.6,6.6"/>
      <path class="st2" d="M50,31.3c-2.3,0-4.4-1.6-5.3-3.9-.4,0-.8.1-1.1.1,1,2.9,3.5,4.9,6.4,4.9s5.4-1.9,6.4-4.8c-.4,0-.7-.1-1.1-.2-.9,2.3-3,3.9-5.3,3.9"/>
    </g>
  </g>
  <g>
    <circle class="st2" cx="45" cy="44.1" r="2"/>
    <path class="st2" d="M55.1,42.1c.7,0,1.3.4,1.7,1,0,0,0,0,0,0,.5-.2.9-.3,1.4-.2.2,0,.4.1.6.3.2.2.2.4.1.6-.1.3-.2.6-.4.8,0,0-.1.2-.2.2,0,0,0,0,0,0,0,0,0,0,0,0-.2-.3-.5-.5-.8-.7,0,0-.2,0-.3,0,0,0,0,0,0,0,0,0,0,0,0,0,.1,1.2-.8,2.2-2,2.2s-2.1-1-2-2.2c0,0,0,0,0,0,0,0,0,0,0,0,0,0-.2,0-.3,0-.3.2-.6.4-.8.7,0,0,0,0,0,0,0,0,0,0,0,0,0,0-.2-.1-.2-.2-.2-.2-.3-.5-.4-.8,0-.2,0-.4.1-.6.2-.1.3-.2.6-.3.5,0,1,0,1.4.2,0,0,0,0,0,0,.4-.6,1-1,1.7-1Z"/>
    <path class="st2" d="M45,46.6c.3,0,.8,0,1.1,0,.7.1,1.3.5,1.8,1,.2.3.9,1,1.8,2.2.1.1.2.3.2.4.2.8-.6,1.4-1.3,1,0,0-.2-.2-.3-.3-.5-.6-.8-1-1-1.2,0-.1-.2,0-.2,0,0,.6,0,3,0,7.1,0,.2,0,.4,0,.4-.1.4-.5.6-.9.6-.4,0-.7-.3-.8-.7,0,0,0-.2,0-.4,0-.9,0-2.2,0-3.8,0-.1-.1-.2-.2-.2s-.2.1-.2.2c0,1.7,0,3,0,3.8,0,.2,0,.3,0,.4,0,.4-.4.6-.8.7-.4,0-.8-.2-.9-.6,0,0,0-.2,0-.4,0-4.2,0-6.6,0-7.1,0-.1-.1-.2-.2,0-.2.2-.5.6-1,1.2-.1.2-.3.3-.3.3-.7.4-1.5-.2-1.3-1,0-.1.1-.3.2-.4,1-1.2,1.6-1.9,1.8-2.2.5-.5,1.1-.9,1.8-1,.3,0,.8,0,1.1,0Z"/>
    <path class="st2" d="M55.1,46.6c.4,0,.8,0,1.1,0,.5,0,1,.3,1.4.6.2.1.4.3.6.6.7.8,1.2,1.4,1.6,1.9.4.4.3,1.2-.2,1.5-.2.1-.5.1-.8,0,0,0-.2-.2-.4-.3-.3-.4-.7-.9-1.2-1.5,0,0,0,0,0,0,0,0,0,0,0,0,0,.1,0,.2,0,.4.2.3.8,1.4,1.8,3.2,0,0,0,.2,0,.4,0,.3-.2.5-.5.6,0,0-.2,0-.4,0-.2,0-.4,0-.6,0-.1,0-.2,0-.3,0-.1,0-.1.2-.1.4,0,.5,0,1.3,0,2.4,0,.2,0,.4,0,.5,0,.2-.2.3-.3.4-.6.4-1.4,0-1.4-.7,0-1.3,0-2.2,0-2.7,0-.1,0-.3-.2-.3s-.2.1-.2.3c0,.5,0,1.4,0,2.7,0,.7-.8,1.2-1.4.7-.1-.1-.2-.2-.3-.4,0,0,0-.3,0-.5,0-1.1,0-1.9,0-2.4,0-.2,0-.3-.1-.4,0,0-.1,0-.3,0-.2,0-.4,0-.6,0-.2,0-.3,0-.4,0-.3-.1-.4-.4-.5-.6,0-.1,0-.3,0-.4,1-1.8,1.6-2.9,1.8-3.2,0-.1,0-.2,0-.4,0,0,0,0,0,0,0,0,0,0,0,0-.5.6-.9,1.1-1.2,1.5-.1.2-.3.3-.4.3-.2.1-.5.1-.8,0-.5-.3-.6-1-.2-1.5.4-.4.9-1.1,1.6-1.9.3-.3.5-.5.6-.6.4-.3.9-.5,1.4-.6.3,0,.6,0,1.1,0Z"/>
  </g>
</svg>