<?xml version="1.0" encoding="UTF-8"?>
<svg id="Layer_2" data-name="Layer 2" xmlns="http://www.w3.org/2000/svg" viewBox="0 0 100 100">
  <defs>
    <style>
      .cls-1 {
        fill: #fff;
      }

      .cls-2 {
        fill: #262262;
      }

      .cls-3 {
        fill: #005ca0;
      }

      .cls-4 {
        fill: #007bff;
      }
    </style>
  </defs>
  <g id="Layer_1-2" data-name="Layer 1">
    <g>
      <rect class="cls-2" width="100" height="100"/>
      <g>
        <polygon class="cls-1" points="18.89 39.9 49.89 70.69 81.26 40.17 66.35 33.16 54.05 34.99 44.41 34.54 40.17 33.83 34.91 32.68 18.89 39.9"/>
        <polygon class="cls-3" points="19.03 40.24 18.74 39.57 36.34 32.05 36.62 32.71 19.03 40.24"/>
        <rect class="cls-3" x="24.62" y="42.43" width="13.72" height=".72" transform="translate(-20.06 29.94) rotate(-39.66)"/>
        <rect class="cls-3" x="73.51" y="28.96" width=".72" height="15.94" transform="translate(8.73 87.71) rotate(-64.5)"/>
        <rect class="cls-3" x="68.89" y="35.96" width=".72" height="13.32" transform="translate(-7.59 69.22) rotate(-50.71)"/>
        <path class="cls-4" d="M38.79,29.61s3.13,1.67,11.52,1.67,12.23-1.32,12.23-1.32l-.69,5.2s-5.32,1.35-11.19,1.35-11.88-1.17-11.88-1.17v-5.72Z"/>
        <path class="cls-3" d="M50.67,36.69c-5.83,0-11.85-1.16-11.91-1.17l-.15-.03v-6.17l.26.14s3.21,1.64,11.44,1.64,12.14-1.3,12.17-1.31l.28-.09-.74,5.6-.12.03c-.05.01-5.4,1.36-11.23,1.36ZM38.98,35.19c.95.18,6.41,1.14,11.7,1.14s10.21-1.12,11.03-1.32l.63-4.8c-1.02.29-4.92,1.25-12.02,1.25s-10.43-1.17-11.34-1.56v5.29Z"/>
        <path class="cls-4" d="M39.24,29.66s-1.14,1.2,1.38,4.87c2.52,3.67,9.55,10.82,9.55,10.82l10.16-10.82s3.61-5.29,1.32-4.87c0,0,5.65,1.68,4.99,3.73-.66,2.04-5.35,11.3-16.23,18.93,0,0-13.34-10.82-16.28-18.51,0,0-.9-.54,1.2-2.58,2.1-2.04,2.4-1.68,3.91-1.56Z"/>
        <path class="cls-3" d="M50.41,52.54l-.1-.09c-.13-.11-13.36-10.89-16.32-18.54-.07-.06-.19-.2-.22-.44-.07-.59.42-1.39,1.44-2.38,1.94-1.89,2.42-1.79,3.54-1.66.16.02.32.04.51.05l.38.03-.26.27s-.98,1.18,1.4,4.64c2.3,3.33,8.43,9.66,9.4,10.66l10.03-10.68c.89-1.3,2.2-3.62,2.01-4.37-.37-.13-.61-.2-.61-.2l-.72-.21.74-.14c.51-.09.75.08.86.26,1.88.67,4.87,2.03,4.33,3.69-.67,2.07-5.4,11.38-16.29,19.02l-.11.08ZM38.06,29.74c-.64,0-1.19.24-2.6,1.61-1.21,1.18-1.36,1.8-1.34,2.06.01.17.1.24.11.24l.05.03.02.05c2.76,7.2,14.86,17.31,16.12,18.35,10.73-7.57,15.38-16.72,16.04-18.76.44-1.37-2.56-2.66-3.88-3.16.01,1.31-1.87,4.11-2.1,4.46l-10.3,10.98-.13-.13c-.07-.07-7.07-7.2-9.58-10.84-1.95-2.83-1.76-4.27-1.53-4.82-.08,0-.16-.02-.24-.03-.24-.03-.45-.05-.65-.05Z"/>
      </g>
    </g>
  </g>
</svg>