<?xml version="1.0" encoding="UTF-8"?>
<svg id="Layer_2" data-name="Layer 2" xmlns="http://www.w3.org/2000/svg" viewBox="0 0 100 100">
  <defs>
    <style>
      .cls-1 {
        fill: #fff;
      }

      .cls-2 {
        fill: #262262;
      }

      .cls-3 {
        fill: #007bff;
      }
    </style>
  </defs>
  <g id="Layer_1-2" data-name="Layer 1">
    <g>
      <rect class="cls-2" width="100" height="100"/>
      <g>
        <path class="cls-1" d="M40.06,36.02c.42.19,1.22.39,1.81.85,2.42,1.92,4.93,3.77,7.11,5.93,2.38,2.35,4.46,5,6.61,7.56.49.58.89,1.32,1.1,2.05.14.52.08,1.35-.25,1.67-.33.33-1.21.44-1.67.24-1.07-.45-2.09-1.07-3.02-1.77-4.51-3.43-8.49-7.41-11.84-11.98-.61-.83-1.11-1.77-1.45-2.74-.37-1.05.25-1.82,1.6-1.82"/>
        <path class="cls-3" d="M55.36,54.96c-.3,0-.58-.05-.79-.14-1.08-.46-2.13-1.08-3.13-1.84-4.62-3.51-8.64-7.58-11.94-12.09-.64-.88-1.17-1.88-1.53-2.88-.22-.64-.17-1.25.16-1.71.37-.53,1.06-.82,1.94-.82h.12l.11.05c.11.05.24.1.39.15.44.16,1.04.38,1.53.77.47.37.95.75,1.42,1.12,1.94,1.52,3.95,3.09,5.73,4.85,1.89,1.87,3.61,3.95,5.28,5.96.45.55.91,1.09,1.37,1.64.55.66.98,1.46,1.2,2.25.16.59.15,1.66-.39,2.2-.34.33-.92.49-1.46.49M39.96,36.56c-.46.02-.81.15-.96.36-.16.22-.1.52-.03.74.32.91.8,1.8,1.38,2.6,3.25,4.43,7.19,8.42,11.73,11.87.91.69,1.92,1.28,2.9,1.7.29.12.93.03,1.08-.13.13-.12.23-.72.11-1.15-.18-.64-.54-1.31-.99-1.85-.46-.54-.91-1.09-1.37-1.64-1.65-1.99-3.36-4.05-5.21-5.88-1.74-1.72-3.72-3.27-5.64-4.77-.48-.37-.95-.75-1.43-1.12-.36-.28-.84-.46-1.23-.6-.13-.05-.24-.09-.35-.13"/>
        <path class="cls-1" d="M23.6,52.49c.31.13.95.27,1.42.64,2.36,1.83,4.84,3.56,6.97,5.64,2.47,2.39,4.67,5.07,6.87,7.71.68.82,1.1,1.91,1.42,2.94.31,1.02-.45,1.8-1.49,1.5-.95-.27-1.9-.72-2.7-1.31-4.89-3.62-9.23-7.83-12.8-12.77-.54-.75-1-1.62-1.31-2.49-.38-1.08.26-1.88,1.6-1.86"/>
        <path class="cls-3" d="M39.23,71.52c-.19,0-.38-.03-.58-.08-1.05-.3-2.04-.78-2.87-1.39-5.14-3.81-9.49-8.14-12.91-12.89-.57-.8-1.05-1.7-1.38-2.63-.24-.66-.17-1.29.17-1.77.39-.53,1.08-.81,1.94-.8h.1s.1.05.1.05c.07.03.17.06.28.1.35.12.84.29,1.25.6.56.44,1.13.87,1.7,1.3,1.8,1.37,3.67,2.78,5.32,4.38,2.39,2.33,4.56,4.94,6.66,7.46l.25.3c.78.94,1.22,2.16,1.52,3.13.21.67.07,1.33-.36,1.77-.31.32-.74.49-1.2.49M23.5,53.02c-.45,0-.8.14-.96.36-.17.24-.11.56-.03.79.29.83.72,1.64,1.24,2.36,3.36,4.66,7.63,8.92,12.68,12.66.71.53,1.61.96,2.52,1.22.3.09.56.04.72-.12.16-.16.2-.42.1-.71-.27-.87-.66-1.96-1.32-2.76l-.25-.3c-2.08-2.5-4.23-5.09-6.58-7.38-1.6-1.56-3.44-2.95-5.22-4.29-.57-.43-1.14-.87-1.71-1.3-.27-.21-.64-.33-.94-.44-.09-.03-.18-.06-.25-.09"/>
        <path class="cls-1" d="M42.7,61.77c.26-.22.52-.38.7-.6.53-.64,1.05-.88,1.99-.69.82.16,1.81-.1,2.63-.42,3.03-1.19,6.13-2.13,9.41-1.88,1.59.12,3.23.5,4.71,1.1,2.11.86,3.14,2.67,3.3,4.93.2,2.73-.56,5.3-1.46,7.82-.27.75-.91,1.04-1.66.78-.81-.28-1.03-.93-.81-1.74.49-1.82,1.1-3.62,1.43-5.47.5-2.77-.59-4.25-3.33-4.92-3.44-.83-6.73-.11-9.96,1.05-.95.34-1.88.75-2.84,1.03-1.48.43-2.81.01-4.1-.98"/>
        <path class="cls-3" d="M62.85,73.44c-.22,0-.46-.04-.7-.12-1.02-.36-1.45-1.25-1.15-2.38.15-.55.31-1.1.46-1.64.36-1.24.73-2.52.96-3.79.44-2.45-.41-3.69-2.93-4.3-3.57-.86-6.88.03-9.65,1.03-.32.12-.65.24-.97.37-.62.24-1.25.49-1.91.68-1.56.45-3.06.1-4.57-1.08l-.53-.41.51-.43c.09-.08.18-.15.27-.22.15-.12.28-.22.36-.32.68-.83,1.43-1.09,2.51-.88.57.11,1.38-.02,2.33-.4,2.8-1.1,6.14-2.18,9.65-1.91,1.67.13,3.36.52,4.87,1.14,2.19.89,3.44,2.75,3.63,5.39.21,2.94-.66,5.69-1.5,8.04-.28.79-.9,1.23-1.64,1.23M56.56,59.79c1.03,0,2.1.11,3.18.37,3.04.74,4.26,2.55,3.73,5.53-.24,1.33-.62,2.63-.98,3.9-.16.54-.31,1.08-.46,1.62-.2.75.11.97.47,1.1.48.17.81.02.98-.45.8-2.24,1.63-4.86,1.44-7.6-.11-1.54-.72-3.56-2.97-4.47-1.41-.57-2.98-.94-4.55-1.06-3.29-.25-6.35.74-9.18,1.84-1.16.45-2.15.61-2.93.45-.69-.14-1.03-.02-1.47.51-.07.09-.14.16-.22.23,1.04.64,2.02.8,3.06.5.61-.17,1.2-.4,1.82-.64.33-.13.66-.26.99-.37,1.98-.71,4.43-1.44,7.09-1.44"/>
        <path class="cls-1" d="M45.13,58.46c-.36-.26-.65-.41-.87-.63-3.07-3.06-6.13-6.14-9.21-9.19-.59-.59-.58-1.06,0-1.66,1.57-1.61,1.56-1.62,3.19,0,2.77,2.77,5.54,5.53,8.3,8.3.81.81.82,1.11-.01,1.93-.43.42-.9.81-1.39,1.25"/>
        <path class="cls-3" d="M45.16,59.15l-.35-.25c-.12-.09-.23-.16-.33-.22-.22-.14-.43-.28-.61-.47-1.31-1.3-2.61-2.61-3.91-3.91-1.76-1.76-3.53-3.53-5.3-5.28-.8-.79-.8-1.6,0-2.41l.04-.04c.87-.88,1.3-1.33,1.91-1.33h0c.62,0,1.08.46,1.99,1.37,2.77,2.77,5.54,5.53,8.3,8.3.39.39.77.81.77,1.34,0,.48-.3.87-.78,1.35-.3.3-.62.57-.95.86-.15.13-.3.26-.46.41l-.32.28ZM36.62,46.3h0c-.17,0-.64.49-1.15,1.01l-.04.04c-.38.39-.38.53,0,.9,1.77,1.76,3.54,3.52,5.3,5.29,1.3,1.3,2.61,2.61,3.91,3.91.11.11.26.21.45.33,0,0,0,0,0,0,.05-.05.11-.09.16-.14.32-.28.62-.54.9-.82.43-.42.47-.56.47-.59,0-.04-.04-.17-.45-.58-2.77-2.77-5.54-5.54-8.3-8.3-.54-.54-1.06-1.06-1.23-1.06"/>
        <path class="cls-1" d="M30.82,51.36c.38.27.67.43.89.65,3.04,3.03,6.07,6.08,9.12,9.1.65.64.71,1.19,0,1.79-.07.06-.14.14-.2.21-1.32,1.33-1.33,1.32-2.68-.04-2.85-2.86-5.7-5.71-8.56-8.56-.78-.78-.79-1.06,0-1.85.45-.45.93-.85,1.44-1.3"/>
        <path class="cls-3" d="M39.31,64.64c-.56,0-.95-.4-1.74-1.18-1.91-1.92-3.83-3.83-5.74-5.74l-2.83-2.82c-.38-.38-.75-.79-.75-1.31,0-.51.37-.92.75-1.3.32-.32.65-.6.99-.91.15-.13.31-.27.47-.41l.32-.29.35.25c.12.09.24.17.35.24.23.15.43.28.61.47,1.23,1.22,2.45,2.45,3.68,3.68,1.81,1.81,3.62,3.62,5.44,5.42.47.46.69.91.67,1.37-.02.44-.25.84-.7,1.22-.03.03-.06.06-.09.09l-.09.09c-.74.74-1.14,1.14-1.7,1.15ZM30.86,52.04c-.05.05-.11.09-.16.14-.33.29-.65.57-.95.86-.41.41-.43.52-.43.54,0,.03.03.14.43.55l2.83,2.82c1.91,1.91,3.82,3.82,5.73,5.74.42.42.85.85.99.87.13-.02.56-.45.94-.83l.06-.06c.06-.06.12-.12.18-.18.2-.17.32-.33.32-.44,0-.13-.12-.33-.35-.56-1.82-1.8-3.63-3.62-5.44-5.43-1.23-1.22-2.45-2.45-3.68-3.67-.11-.11-.26-.21-.45-.33,0,0-.01,0-.02-.01"/>
        <path class="cls-1" d="M39.43,42.68c.4.28.66.42.86.61,3.09,3.07,6.17,6.16,9.27,9.23.57.57.59,1.06.01,1.67-1.56,1.62-1.57,1.63-3.18.02-2.76-2.77-5.53-5.51-8.27-8.3-.32-.32-.69-1.06-.54-1.27.49-.72,1.19-1.29,1.85-1.96"/>
        <path class="cls-3" d="M47.99,55.94c-.62,0-1.11-.49-1.98-1.36-.87-.87-1.73-1.74-2.6-2.6-1.86-1.86-3.79-3.79-5.67-5.7-.19-.19-1.04-1.29-.6-1.95.38-.57.88-1.04,1.36-1.5.18-.18.37-.35.55-.53l.32-.32.37.26c.14.1.26.18.36.24.21.14.4.26.56.43,1.48,1.47,2.96,2.95,4.43,4.42,1.61,1.61,3.22,3.21,4.83,4.81.79.79.8,1.6.03,2.42-.88.92-1.33,1.38-1.95,1.39h-.01ZM38.1,44.83c.05.18.23.52.41.7,1.87,1.91,3.8,3.83,5.66,5.69.87.87,1.74,1.73,2.6,2.6.51.51,1.04,1.05,1.22,1.05.17,0,.67-.52,1.19-1.06.37-.39.37-.54,0-.92-1.61-1.6-3.22-3.21-4.83-4.82-1.48-1.47-2.95-2.95-4.43-4.42-.09-.09-.22-.17-.4-.29,0,0-.01,0-.02-.01-.09.08-.17.16-.25.24-.43.41-.83.8-1.14,1.23"/>
        <path class="cls-1" d="M44.4,59.3c-.7.68-1.26,1.38-1.97,1.82-.24.15-.99-.27-1.33-.61-3-2.95-5.95-5.95-8.94-8.9-.62-.62-.66-1.08-.03-1.72,1.52-1.55,1.55-1.57,3.05-.07,2.79,2.79,5.58,5.57,8.37,8.37.28.29.5.64.86,1.1"/>
        <path class="cls-3" d="M42.3,61.69c-.63,0-1.39-.6-1.58-.79-1.64-1.61-3.26-3.24-4.89-4.86-1.35-1.35-2.7-2.7-4.06-4.04-.84-.83-.86-1.64-.04-2.47.87-.89,1.31-1.34,1.93-1.34h0c.61,0,1.09.48,1.88,1.27l1.96,1.96c2.14,2.13,4.28,4.27,6.41,6.41.22.22.39.45.59.73.1.13.2.27.32.43l.29.38-.34.33c-.2.19-.38.38-.56.57-.48.5-.93.97-1.5,1.32-.12.08-.26.11-.41.11M33.67,49.25h0c-.17,0-.68.52-1.17,1.02-.4.41-.4.54.03.96,1.36,1.34,2.71,2.7,4.06,4.05,1.62,1.62,3.24,3.25,4.88,4.86.21.21.59.42.77.47.42-.28.8-.68,1.2-1.09.09-.09.17-.18.26-.27-.02-.02-.04-.05-.05-.07-.18-.25-.32-.44-.48-.6-2.13-2.14-4.27-4.28-6.4-6.41l-1.96-1.96c-.45-.45-.95-.95-1.12-.95"/>
        <path class="cls-1" d="M52.39,26.91c2.69.92,5.36,1.82,8.09,2.75.58-1.28,1.6-1.98,3.1-1.84,1.47.14,2.56,1.29,2.4,2.75-.14,1.32-.01,2.32,1.34,2.97.66.32,1.18.93,1.74,1.43,2.73,2.44,2.91,5.89.34,8.49-1.1,1.12-2.42,2.03-3.58,3.1-.4.37-.82.92-.86,1.42-.38,5.01-.7,10.03-.97,15.05-.02.4.34,1.02.7,1.21,4.14,2.25,8.32,4.45,12.49,6.65.37.19.75.35,1.12.52-.24.89-.75.85-1.39.52-3.96-2.04-7.92-4.08-11.89-6.12-.33-.17-.65-.38-1.16-.68-.18,2.62-.35,5.1-.52,7.59-.07,0-.15,0-.22,0-.17-2.49-.37-4.98-.49-7.48-.04-.75-.33-1.18-.89-1.67-1.84-1.61-3.81-3.15-5.33-5.03-2.63-3.25-2.02-6.31,1.44-8.69.93-.64,2-1.07,2.94-1.7.33-.22.66-.73.64-1.1-.15-3.2-.37-6.4-.57-9.6-.12-1.84-.26-3.69-.34-5.53-.03-.63-.18-1.07-.83-1.3-2.24-.79-4.46-1.63-6.7-2.42-.51-.18-1.1-.21-.6-1.33M61.6,49.08c-1.81.77-3.34,1.62-4.48,3.04-.86,1.07-1.16,2.3-.75,3.62.97,3.1,3.44,4.9,5.77,6.81.1-.04.2-.09.3-.13-.27-4.38-.55-8.76-.83-13.34M65.08,45.53c2.85-1.39,5.01-4.4,4.82-6.53-.16-1.77-2.34-4.39-4.14-4.88-.22,3.77-.45,7.51-.68,11.41M64.46,31.66c-.09-.74-.02-1.29-.25-1.65-.21-.33-.74-.58-1.14-.6-.29,0-.77.4-.82.68-.04.24.37.63.66.84.39.27.86.41,1.55.73M62.2,31.79c0,.91-.3,1.67.62,1.95.66.2,1.24.04,1.58-.78-.7-.38-1.35-.72-2.2-1.17"/>
        <path class="cls-3" d="M63.61,73.03h-.75s-.02-.27-.02-.27c-.05-.69-.1-1.38-.14-2.07-.13-1.77-.26-3.6-.35-5.41-.03-.61-.23-.98-.79-1.47-.35-.3-.7-.6-1.05-.91-1.5-1.29-3.06-2.61-4.31-4.16-1.31-1.62-1.87-3.23-1.64-4.77.23-1.6,1.29-3.05,3.14-4.32.5-.34,1.03-.62,1.55-.9.47-.25.95-.51,1.4-.8.26-.18.53-.61.52-.85-.11-2.47-.28-4.99-.43-7.42-.05-.73-.09-1.45-.14-2.17-.03-.53-.07-1.06-.11-1.59-.09-1.29-.17-2.63-.23-3.95-.03-.63-.18-.88-.64-1.04-1.1-.39-2.21-.79-3.28-1.18-1.12-.41-2.28-.83-3.43-1.23-.05-.02-.1-.04-.16-.05-.28-.09-.6-.19-.75-.51-.12-.28-.08-.64.14-1.14l.11-.24,8.09,2.76c.68-1.3,1.8-1.92,3.27-1.77.84.08,1.58.46,2.08,1.07.45.55.66,1.26.58,1.99-.14,1.31,0,2.12,1.18,2.68.53.25.96.67,1.38,1.07.14.14.28.27.43.4,1.4,1.25,2.2,2.83,2.26,4.45.05,1.6-.61,3.14-1.9,4.45-.64.65-1.35,1.23-2.04,1.79-.52.42-1.06.86-1.55,1.32-.33.31-.74.82-.77,1.24-.37,4.82-.69,9.88-.97,15.04-.02.29.28.81.55.95,3.49,1.9,7.07,3.79,10.52,5.61l1.97,1.04c.24.13.5.24.75.35.12.05.24.11.35.16l.21.1-.06.23c-.12.46-.33.74-.62.87-.4.18-.86-.01-1.17-.17-2.14-1.1-4.28-2.21-6.42-3.31-1.82-.94-3.64-1.87-5.46-2.81-.23-.12-.44-.24-.71-.4-.03-.02-.05-.03-.08-.05l-.51,7.4ZM63.62,64.69l.39.23c.18.11.34.2.48.28.26.16.47.28.67.39,1.82.94,3.64,1.87,5.46,2.81,2.14,1.1,4.28,2.2,6.42,3.31.32.17.55.22.69.16.1-.04.17-.16.23-.28-.04-.02-.08-.03-.12-.05-.26-.12-.52-.23-.78-.37l-1.97-1.04c-3.46-1.83-7.04-3.71-10.53-5.61-.46-.25-.87-.97-.85-1.47.28-5.16.6-10.23.97-15.05.06-.73.74-1.41.95-1.61.51-.47,1.05-.91,1.58-1.34.68-.55,1.38-1.13,2-1.75,1.18-1.2,1.78-2.6,1.74-4.04-.05-1.48-.76-2.88-2.07-4.05-.15-.13-.3-.28-.44-.41-.41-.39-.79-.76-1.23-.97-1.62-.77-1.62-2.08-1.5-3.25.06-.59-.09-1.13-.45-1.58-.4-.49-1-.8-1.7-.87-1.31-.13-2.26.43-2.82,1.67l-.1.23-8.07-2.75c-.09.27-.07.39-.05.45.04.1.22.15.41.21.06.02.12.04.18.06,1.15.4,2.31.83,3.43,1.24,1.07.39,2.18.79,3.27,1.18.85.3.99.92,1.01,1.55.06,1.31.15,2.65.23,3.94.03.53.07,1.06.1,1.59.05.72.09,1.45.14,2.17.16,2.43.32,4.95.43,7.43.02.49-.38,1.09-.77,1.35-.47.31-.96.57-1.44.83-.5.27-1.02.54-1.49.87-1.72,1.18-2.69,2.5-2.9,3.94-.2,1.38.31,2.84,1.52,4.34,1.22,1.51,2.75,2.82,4.24,4.09.35.3.71.6,1.06.91.58.5.94.99.98,1.87.08,1.69.2,3.41.32,5.08l.39-5.64ZM62.09,62.87l-.13-.11c-.19-.15-.38-.31-.57-.46-2.15-1.75-4.37-3.55-5.29-6.48-.42-1.35-.15-2.69.8-3.87,1.25-1.56,2.94-2.42,4.59-3.12l.36-.15.87,13.93-.64.27ZM61.35,49.5c-1.46.64-2.93,1.45-4.01,2.8-.83,1.05-1.07,2.18-.7,3.36.87,2.77,2.93,4.44,5.11,6.21.13.11.27.22.4.32l-.8-12.69ZM64.77,45.99l.73-12.23.33.09c1.89.52,4.16,3.2,4.34,5.13.21,2.26-2.07,5.38-4.97,6.8l-.43.21ZM66.01,34.5l-.63,10.54c2.47-1.39,4.4-4.11,4.23-6.02-.14-1.56-2.01-3.86-3.6-4.52M63.31,34.1c-.18,0-.36-.03-.56-.09-.94-.29-.89-1.03-.85-1.69.01-.17.02-.35.02-.53v-.47s2.84,1.52,2.84,1.52l-.1.23c-.28.68-.75,1.03-1.36,1.03M62.47,32.25s0,.08,0,.12c-.05.71-.04.96.45,1.11.52.16.88.04,1.13-.39l-1.57-.84ZM64.8,32.12l-.46-.21c-.22-.1-.43-.19-.61-.26-.39-.16-.7-.29-.98-.49-.09-.06-.87-.62-.78-1.12.08-.42.69-.92,1.11-.91.45.01,1.08.29,1.36.73.19.3.22.68.24,1.12.01.2.03.42.06.65l.06.5ZM62.52,30.13c.02.09.24.36.54.57.24.16.52.28.88.43.06.03.12.05.19.08,0-.07,0-.14-.01-.21-.02-.37-.04-.67-.16-.85-.14-.23-.59-.46-.91-.47h0c-.14,0-.49.29-.53.45"/>
      </g>
    </g>
  </g>
</svg>