<?xml version="1.0" encoding="UTF-8"?>
<svg id="Layer_2" data-name="Layer 2" xmlns="http://www.w3.org/2000/svg" viewBox="0 0 100 100">
  <defs>
    <style>
      .cls-1 {
        fill: #fff;
      }

      .cls-2 {
        fill: #262262;
      }

      .cls-3 {
        fill: #007bff;
      }
    </style>
  </defs>
  <g id="Layer_1-2" data-name="Layer 1">
    <g>
      <rect class="cls-2" width="100" height="100"/>
      <g>
        <path class="cls-1" d="M53.38,41.03c.02.49.06.9.06,1.31,0,8.47,0,16.94,0,25.42,0,2.23-.9,3.16-3.09,3.17-6.25.01-12.5.01-18.75,0-2.02,0-2.97-.98-2.97-3-.01-8.66,0-17.32,0-25.97,0-.27.03-.54.05-.91h24.71ZM41.94,51.78c2.24-2.16,4.26-4.15,6.07-6.34-1.36.18-6.04,5-6.07,6.34M42.75,48.09c1.25-.33,4.15-3.37,4.15-4.03-1.28,1.24-2.7,2.62-4.15,4.03"/>
        <path class="cls-3" d="M41.25,72.87c-3.22,0-6.44,0-9.66-.01-3.07-.01-4.9-1.86-4.9-4.94,0-7.58,0-15.15,0-22.73v-3.25c0-.23.02-.45.04-.71l.02-.32c.06-1.02.91-1.82,1.93-1.82h24.71c1.03,0,1.89.81,1.93,1.85l.02.43c.02.34.04.66.04.97,0,8.47,0,16.95,0,25.42,0,3.28-1.79,5.09-5.02,5.1-3.03,0-6.07,0-9.1,0M30.56,42.97v2.22c0,7.58,0,15.15,0,22.72,0,1,.13,1.07,1.04,1.07,6.25.02,12.49.01,18.74,0,1.05,0,1.16,0,1.16-1.23,0-8.26,0-16.52,0-24.79h-3c.15.21.25.46.3.71.37.17.69.46.9.83.38.7.3,1.56-.21,2.17-1.91,2.3-4.03,4.38-6.22,6.49-.57.54-1.41.69-2.12.38-.72-.31-1.18-1.03-1.16-1.81.01-.68.46-1.6,1.14-2.57-.03-.04-.05-.08-.08-.12-.43-.77-.3-1.73.34-2.34l3.85-3.74h-14.7Z"/>
        <path class="cls-1" d="M46.47,35.39v-1.85h24.67c.02.39.06.83.06,1.27,0,8.61,0,17.21,0,25.82,0,2.36-.81,3.16-3.16,3.16-4.53,0-9.06,0-13.78,0v-1.57c0-8.1,0-16.19,0-24.29,0-2.2-.35-2.54-2.6-2.54-1.7,0-3.4,0-5.18,0M60.31,44.14c1.38-.01,6.21-4.68,6.54-5.9-.1-.1-.19-.19-.29-.29-2.01,1.99-4.02,3.98-6.25,6.19M66.29,36.58c-1.64.52-4.5,3.54-4.47,4.69,1.62-1.44,3.14-2.72,4.47-4.69"/>
        <path class="cls-3" d="M58.3,65.73h-4.04c-1.07,0-1.94-.87-1.94-1.94v-25.86c0-.25,0-.44-.02-.58-.16,0-.37-.02-.65-.02h-5.18c-1.07,0-1.94-.87-1.94-1.94v-1.85c0-1.07.87-1.94,1.94-1.94h24.67c1.03,0,1.88.81,1.93,1.84l.02.35c.02.32.04.66.04,1.01,0,8.61,0,17.22,0,25.83,0,3.43-1.67,5.1-5.1,5.1h-9.74ZM56.19,61.85h11.84c.84,0,1.09-.13,1.11-.15-.01,0,.12-.24.12-1.08,0-8.38,0-16.77,0-25.15h-1.39c.28.41.39.9.33,1.37l.03.03c.48.49.67,1.19.49,1.86-.45,1.7-5.86,7.32-8.39,7.34h-.01c-.78,0-1.49-.47-1.79-1.19-.3-.73-.13-1.57.43-2.12l.99-.99c-.04-.15-.06-.3-.07-.46-.05-1.86,2.32-4.5,4.36-5.85h-8.42c.26.64.38,1.45.38,2.46v23.93Z"/>
        <path class="cls-1" d="M28.74,38.43c-.26-2.16-.19-2.23,1.82-2.23,6.98,0,13.96,0,20.94,0,2.01,0,2.09.1,1.81,2.23h-24.57Z"/>
        <path class="cls-3" d="M53.31,40.37h-24.57c-.98,0-1.8-.73-1.92-1.71-.16-1.34-.3-2.5.55-3.46.83-.94,1.98-.94,3.2-.94h20.94c1.16,0,2.36,0,3.2.96.85.97.69,2.18.52,3.46-.13.96-.95,1.68-1.92,1.68"/>
        <path class="cls-1" d="M46.5,30.93c-.17-1.73-.07-1.86,1.52-1.86,7.18,0,14.35,0,21.53,0,1.63,0,1.7.09,1.56,1.86h-24.62Z"/>
        <path class="cls-3" d="M71.11,32.87h-24.62c-1,0-1.83-.76-1.93-1.75-.1-1.02-.21-2.18.61-3.09.81-.9,1.94-.9,2.84-.9,7.18,0,14.35,0,21.53,0,.96,0,2.04,0,2.85.87.82.88.73,1.99.65,3.07-.08,1.01-.92,1.79-1.93,1.79"/>
        <path class="cls-1" d="M46.44,32.02h24.94c-.94.7-23.45.84-24.94,0"/>
        <path class="cls-3" d="M59.98,34.55c-5.47,0-11.13-.23-13.47-.59h-.07c-.47-.09-.8-.16-.95-.25-.77-.43-1.15-1.33-.93-2.18.22-.85.99-1.44,1.87-1.44h24.94c.83,0,1.57.54,1.84,1.33.26.79-.01,1.66-.68,2.16-.2.15-.59.27-1.16.38h-.01c-2.16.42-6.7.59-11.39.59"/>
        <path class="cls-1" d="M28.69,39.98c1.09-.9,24.02-.79,24.83,0h-24.83Z"/>
        <path class="cls-3" d="M53.52,41.91h-24.83c-.82,0-1.55-.51-1.82-1.28-.28-.77-.04-1.63.59-2.15.19-.16.61-.29,1.23-.41v-.03h.17c4.67-.84,18.91-.81,24.14,0l.52.09c.7.13,1.17.29,1.35.46.57.55.74,1.39.44,2.12-.3.73-1.01,1.21-1.79,1.21"/>
        <path class="cls-3" d="M41.94,51.78c.03-1.33,4.71-6.16,6.07-6.34-1.81,2.18-3.83,4.17-6.07,6.34"/>
        <path class="cls-3" d="M41.94,53.72c-.26,0-.53-.05-.78-.16-.72-.31-1.18-1.03-1.16-1.81.05-2.41,5.61-7.94,7.76-8.22.81-.09,1.56.29,1.94.99.38.7.3,1.56-.21,2.17-1.91,2.3-4.03,4.38-6.22,6.49-.37.36-.85.54-1.34.54"/>
        <path class="cls-3" d="M42.75,48.09c1.45-1.41,2.87-2.79,4.15-4.03,0,.66-2.9,3.69-4.15,4.03"/>
        <path class="cls-3" d="M42.75,50.03c-.68,0-1.33-.36-1.68-.98-.43-.77-.3-1.73.34-2.35l4.15-4.03c.56-.54,1.39-.7,2.1-.39.72.3,1.18,1.01,1.18,1.78,0,2-4.01,5.48-5.59,5.9-.17.04-.34.07-.5.07"/>
        <path class="cls-3" d="M60.31,44.14c2.23-2.21,4.24-4.2,6.25-6.19.1.1.19.19.29.29-.33,1.22-5.16,5.89-6.54,5.9"/>
        <path class="cls-3" d="M60.31,46.07c-.78,0-1.49-.47-1.79-1.19-.3-.73-.13-1.57.43-2.12l6.25-6.19c.76-.75,1.98-.75,2.73,0l.3.3c.48.49.66,1.19.49,1.86-.45,1.7-5.86,7.32-8.39,7.34h-.02Z"/>
        <path class="cls-3" d="M66.29,36.58c-1.33,1.97-2.85,3.25-4.47,4.69-.03-1.15,2.83-4.17,4.47-4.69"/>
        <path class="cls-3" d="M61.82,43.2c-.26,0-.52-.05-.77-.16-.69-.3-1.15-.97-1.17-1.72-.06-2.33,3.69-5.91,5.82-6.59.79-.24,1.65.02,2.14.69.49.66.52,1.56.05,2.24-1.37,2.02-2.93,3.41-4.44,4.74l-.35.31c-.36.32-.82.49-1.29.49"/>
        <path class="cls-1" d="M53.38,41.03c.02.49.06.9.06,1.31,0,8.47,0,16.94,0,25.42,0,2.23-.9,3.16-3.09,3.17-6.25.01-12.5.01-18.75,0-2.02,0-2.97-.98-2.97-3-.01-8.66,0-17.32,0-25.97,0-.27.03-.54.05-.91h24.71ZM41.94,51.78c2.24-2.16,4.26-4.15,6.07-6.34-1.36.18-6.04,5-6.07,6.34M42.75,48.09c1.25-.33,4.15-3.37,4.15-4.03-1.28,1.24-2.7,2.62-4.15,4.03"/>
        <path class="cls-1" d="M46.47,35.39v-1.85h24.67c.02.39.06.83.06,1.27,0,8.61,0,17.21,0,25.82,0,2.36-.81,3.16-3.16,3.16-4.53,0-9.06,0-13.78,0v-1.57c0-8.1,0-16.19,0-24.29,0-2.2-.35-2.54-2.6-2.54-1.7,0-3.4,0-5.18,0M60.31,44.14c1.38-.01,6.21-4.68,6.54-5.9-.1-.1-.19-.19-.29-.29-2.01,1.99-4.02,3.98-6.25,6.19M66.29,36.58c-1.64.52-4.5,3.54-4.47,4.69,1.62-1.44,3.14-2.72,4.47-4.69"/>
        <path class="cls-1" d="M28.74,38.43c-.26-2.16-.19-2.23,1.82-2.23,6.98,0,13.96,0,20.94,0,2.01,0,2.09.1,1.81,2.23h-24.57Z"/>
        <path class="cls-1" d="M46.5,30.93c-.17-1.73-.07-1.86,1.52-1.86,7.18,0,14.35,0,21.53,0,1.63,0,1.7.09,1.56,1.86h-24.62Z"/>
        <path class="cls-1" d="M46.44,32.02h24.94c-.94.7-23.45.84-24.94,0"/>
        <path class="cls-1" d="M28.69,39.98c1.09-.9,24.02-.79,24.83,0h-24.83Z"/>
        <path class="cls-3" d="M41.94,51.78c.03-1.33,4.71-6.16,6.07-6.34-1.81,2.18-3.83,4.17-6.07,6.34"/>
        <path class="cls-3" d="M42.75,48.09c1.45-1.41,2.87-2.79,4.15-4.03,0,.66-2.9,3.69-4.15,4.03"/>
        <path class="cls-3" d="M60.31,44.14c2.23-2.21,4.24-4.2,6.25-6.19.1.1.19.19.29.29-.33,1.22-5.16,5.89-6.54,5.9"/>
        <path class="cls-3" d="M66.29,36.58c-1.33,1.97-2.85,3.25-4.47,4.69-.03-1.15,2.83-4.17,4.47-4.69"/>
      </g>
    </g>
  </g>
</svg>